<?xml version="1.0" encoding="UTF-8" standalone="no"?>
<!-- Created with Inkscape (http://www.inkscape.org/) -->

<svg
   width="287.53125"
   height="177.25"
   id="svg2"
   version="1.1"
   sodipodi:docname="mupif-logo-2light.svg"
   inkscape:version="1.1.2 (0a00cf5339, 2022-02-04)"
   xmlns:inkscape="http://www.inkscape.org/namespaces/inkscape"
   xmlns:sodipodi="http://sodipodi.sourceforge.net/DTD/sodipodi-0.dtd"
   xmlns="http://www.w3.org/2000/svg"
   xmlns:svg="http://www.w3.org/2000/svg"
   xmlns:rdf="http://www.w3.org/1999/02/22-rdf-syntax-ns#"
   xmlns:cc="http://creativecommons.org/ns#"
   xmlns:dc="http://purl.org/dc/elements/1.1/">
  <sodipodi:namedview
     id="namedview544"
     pagecolor="#ffffff"
     bordercolor="#666666"
     borderopacity="1.0"
     inkscape:pageshadow="2"
     inkscape:pageopacity="0.0"
     inkscape:pagecheckerboard="0"
     showgrid="false"
     inkscape:zoom="4.6534072"
     inkscape:cx="220.80595"
     inkscape:cy="88.537276"
     inkscape:window-width="2502"
     inkscape:window-height="1403"
     inkscape:window-x="58"
     inkscape:window-y="0"
     inkscape:window-maximized="1"
     inkscape:current-layer="layer7" />
  <defs
     id="defs4" />
  <metadata
     id="metadata7">
    <rdf:RDF>
      <cc:Work
         rdf:about="">
        <dc:format>image/svg+xml</dc:format>
        <dc:type
           rdf:resource="http://purl.org/dc/dcmitype/StillImage" />
      </cc:Work>
    </rdf:RDF>
  </metadata>
  <g
     id="layer4"
     style="display:none"
     transform="translate(-294.625,-57.875)">
    <rect
       style="fill:#ffffff;fill-opacity:1;fill-rule:nonzero;stroke:#000000;stroke-opacity:1"
       id="rect4212"
       width="283.51312"
       height="173.52132"
       x="85.492836"
       y="83.222076" />
  </g>
  <g
     id="layer1"
     style="display:none"
     transform="translate(-294.625,-57.875)">
    <path
       style="fill:none;stroke:#000000;stroke-width:6;stroke-miterlimit:4;stroke-opacity:1;stroke-dasharray:none"
       d="m 227.43219,166.94289 c -10.99742,0.0527 -8.60344,-0.89903 -23.39448,-0.47308 -14.79104,0.42592 -33.20813,0.86251 -36.21597,8.19456 -2.28586,5.57213 6.32859,13.40814 6.49241,19.42869 0.23967,8.80779 -2.1872,11.48088 -6.12967,15.31318 -3.86816,3.76007 -9.56061,5.62799 -15.18894,5.58601 -5.62833,-0.042 -10.98786,-2.00269 -14.8123,-5.64933 -3.80287,-3.62607 -6.4769,-7.22032 -6.31177,-14.44484 0.15615,-6.83139 10.10092,-14.4993 7.2359,-19.86999 -4.76863,-8.93915 -19.53758,-7.71418 -34.18152,-7.73732 l -19.622214,-0.031"
       id="path3114" />
    <path
       style="fill:none;stroke:#000000;stroke-width:6;stroke-miterlimit:4;stroke-opacity:1;stroke-dasharray:none;display:inline"
       d="m 369.50822,167.03909 c -10.99742,-0.0527 -8.60344,0.89903 -23.39448,0.47308 -14.79104,-0.42592 -33.20812,-0.86251 -36.21596,-8.19456 -2.28586,-5.57213 6.32859,-13.40814 6.49241,-19.42869 0.23967,-8.80779 -2.1872,-11.48088 -6.12967,-15.31318 -3.86816,-3.76007 -9.56061,-5.62799 -15.18894,-5.58601 -5.62834,0.042 -10.98787,2.00269 -14.81231,5.64933 -3.80287,3.62607 -6.4769,7.22032 -6.31177,14.44484 0.15615,6.83139 10.10092,14.4993 7.2359,19.86999 -4.76863,8.93915 -19.53758,7.71418 -34.18152,7.73732 l -19.62221,0.031"
       id="path3114-4" />
    <path
       style="fill:none;stroke:#000000;stroke-width:6;stroke-miterlimit:4;stroke-opacity:1;stroke-dasharray:none;display:inline"
       d="m 226.13353,255.84258 c 0.42592,-14.79104 1.41119,-27.17264 8.74324,-30.18048 5.57213,-2.28586 13.40814,6.32859 19.42869,6.49241 8.80779,0.23967 11.48088,-2.1872 15.31318,-6.12967 3.76007,-3.86816 5.62799,-9.56061 5.58601,-15.18894 -0.042,-5.62834 -2.00269,-10.98787 -5.64933,-14.81231 -3.62607,-3.80287 -7.22032,-6.4769 -14.44484,-6.31177 -6.83139,0.15615 -14.4993,10.10092 -19.86999,7.2359 -8.93915,-4.76863 -9.36022,-15.69682 -9.38336,-30.34076"
       id="path3114-4-7" />
    <path
       style="fill:none;stroke:#000000;stroke-width:6;stroke-miterlimit:4;stroke-opacity:1;stroke-dasharray:none;display:inline"
       d="m 226.00258,166.67106 c -0.82322,-14.39887 2.23752,-22.41106 -5.52676,-27.78699 -5.39624,-3.73632 -13.40814,3.03651 -19.42869,3.20033 -8.80779,0.23967 -11.48088,-2.1872 -15.31318,-6.12967 -3.76007,-3.86816 -5.62799,-9.56061 -5.58601,-15.18894 0.042,-5.62834 2.00269,-10.98787 5.64933,-14.81231 3.62607,-3.80287 7.22032,-6.4769 14.44484,-6.31177 6.83139,0.15615 14.4993,10.10092 19.86999,7.2359 8.93915,-4.76863 9.29861,-9.112884 9.38336,-23.756597"
       id="path3114-4-7-0" />
    <path
       style="fill:#e5ff80;fill-opacity:1;fill-rule:nonzero;stroke:#000000;stroke-width:3.29208088;stroke-miterlimit:4;stroke-opacity:1;stroke-dasharray:none"
       d="m 145.97387,210.26484 c -4.48622,-1.76909 -8.97326,-6.46331 -10.19491,-10.66563 -1.17396,-4.03828 -0.67522,-6.27566 2.58254,-11.58555 3.38718,-5.52082 4.28886,-7.80834 4.30224,-10.91455 0.0254,-5.88257 -5.74488,-10.62827 -14.84726,-12.21114 -2.24287,-0.39003 -10.81949,-0.628 -22.63306,-0.628 l -19.021688,0 0,-40.05365 0,-40.053652 70.034418,0 70.03442,0 -0.29539,5.898311 c -0.16247,3.244072 -0.5835,6.63903 -0.93563,7.544352 -1.1833,3.042269 -5.11143,6.309819 -7.58543,6.309819 -0.56871,0 -3.10822,-1.25981 -5.64335,-2.79958 -2.53513,-1.539766 -5.6005,-3.206382 -6.81192,-3.703588 -2.99999,-1.231291 -9.08431,-1.140268 -12.76427,0.190956 -6.12599,2.216073 -12.19473,8.861042 -14.16509,15.510082 -1.80754,6.09964 -1.02948,14.57775 1.85711,20.23594 2.47893,4.8591 8.90908,10.33085 13.36695,11.37465 0.809,0.18942 3.52496,0.36439 6.03548,0.38884 3.92942,0.0382 5.31812,-0.22911 9.97968,-1.92131 6.63255,-2.40769 8.43312,-2.48735 10.32694,-0.45687 2.56914,2.75454 2.8394,3.85166 3.08297,12.51558 l 0.23231,8.26331 -9.52865,-0.23478 c -18.52457,-0.45644 -36.54068,1.39145 -42.47853,4.35695 -3.41574,1.7059 -6.07181,4.74768 -6.53389,7.48273 -0.51399,3.04228 0.41825,6.11161 3.70441,12.19648 2.65841,4.92249 2.80972,5.41912 2.71993,8.92747 -0.11615,4.53799 -1.20064,6.99836 -4.50161,10.21266 -3.54342,3.45039 -6.4405,4.57754 -12.36886,4.81228 -4.0814,0.16161 -5.46063,-0.0105 -7.94986,-0.99211 l 0,0 z"
       id="path3936" />
    <path
       style="fill:#e5ff80;fill-opacity:1;fill-rule:nonzero;stroke:#000000;stroke-width:3.29208088;stroke-miterlimit:4;stroke-opacity:1;stroke-dasharray:none"
       d="m 332.88353,163.66229 c -12.33792,-0.83382 -20.1169,-3.36747 -20.1169,-6.55217 0,-0.51936 1.52701,-3.97922 3.39335,-7.68857 l 3.39334,-6.74427 -0.10115,-4.70414 c -0.11878,-5.52363 -1.06692,-8.68717 -3.66468,-12.22754 -7.36685,-10.03993 -22.68744,-12.87415 -33.94133,-6.27893 -8.93676,5.23729 -13.4312,16.365 -9.96265,24.66641 0.43298,1.03627 2.0308,3.95177 3.55071,6.47889 3.59609,5.97916 3.57359,7.44279 -0.14979,9.74396 -3.83932,2.37283 -8.13629,2.85084 -27.60831,3.07125 l -18.30887,0.20724 -0.003,-6.6829 c -0.005,-10.96918 -1.08965,-15.15793 -4.89048,-18.89005 -4.19846,-4.12255 -7.6983,-4.38504 -16.94914,-1.2712 -6.01071,2.02321 -6.64614,2.13024 -10.10073,1.70135 -4.28749,-0.53229 -6.78794,-1.89751 -9.41336,-5.13958 -2.56615,-3.16888 -3.44623,-5.07957 -4.16473,-9.04186 -1.90138,-10.48549 5.61967,-21.06122 15.06987,-21.19051 2.91554,-0.0399 3.47293,0.18877 10.59818,4.34777 5.97027,3.48483 9.09785,3.86766 13.22889,1.61927 4.00375,-2.17911 7.44323,-6.05729 8.5499,-9.640433 0.50083,-1.621568 1.04769,-5.725999 1.21526,-9.120958 l 0.30467,-6.172651 67.68546,0 67.68547,0 0,39.697152 0,39.69715 -5.02241,0.3565 c -6.37293,0.45236 -21.83799,0.32918 -30.27739,-0.24118 l 0,0 z"
       id="path3938" />
    <path
       style="fill:#e5ff80;fill-opacity:1;fill-rule:nonzero;stroke:#000000;stroke-width:3.29208088;stroke-miterlimit:4;stroke-opacity:1;stroke-dasharray:none"
       d="m 229.63558,250.26558 c 0.76316,-12.04691 2.41834,-18.19627 5.56372,-20.67042 1.79754,-1.41395 2.24549,-1.30677 9.05394,2.16634 6.73377,3.43501 8.97464,3.93608 14.68856,3.28439 5.56248,-0.63441 8.97872,-2.37742 12.7524,-6.50643 4.7408,-5.18719 6.57423,-10.19202 6.54139,-17.85643 -0.0326,-7.60184 -2.48596,-13.20836 -8.06278,-18.42521 -4.32022,-4.04136 -8.11806,-5.57905 -13.92023,-5.63611 -4.45628,-0.0438 -5.40448,0.31048 -13.43396,5.01958 -2.10763,1.23608 -4.37256,2.24741 -5.03319,2.24741 -1.64318,0 -4.39403,-2.42765 -5.73966,-5.06531 -1.60674,-3.14947 -2.65803,-8.75833 -2.66899,-14.23966 l -0.01,-4.76494 20.43834,-0.19535 c 19.39506,-0.18537 20.62559,-0.2578 24.10683,-1.41891 4.30137,-1.43466 8.66758,-4.67838 9.95815,-7.39807 1.89296,-3.98911 1.08742,-7.49777 -3.40091,-14.81338 -1.2576,-2.04978 -2.56476,-4.76711 -2.90481,-6.03853 -1.37293,-5.13321 2.57079,-11.96196 8.94834,-15.49449 2.73835,-1.51677 3.3197,-1.62423 8.69568,-1.60739 6.79285,0.0213 9.29452,0.91436 13.19188,4.7094 3.21132,3.12701 4.29927,5.53312 4.48711,9.92365 0.14437,3.37451 -0.008,3.88861 -2.67109,9.0039 -3.3409,6.41756 -4.24438,9.41626 -3.73875,12.40906 0.46208,2.73505 3.11815,5.77683 6.53389,7.48273 6.19243,3.09265 24.72426,4.8757 44.33499,4.26572 l 10.83643,-0.33706 0,42.78974 0,42.78975 -69.45201,0 -69.45202,0 0.35628,-5.62398 0,0 z"
       id="path3940" />
    <path
       style="fill:#e5ff80;fill-opacity:1;fill-rule:nonzero;stroke:#000000;stroke-width:3.29208088;stroke-miterlimit:4;stroke-opacity:1;stroke-dasharray:none"
       d="m 86.161732,213.0925 0,-42.79705 14.402858,0.013 c 16.479,0.0149 25.88269,0.62639 29.6243,1.92649 3.18738,1.10752 5.9031,3.53547 5.90169,5.27632 -5.5e-4,0.7088 -1.24461,3.35638 -2.76452,5.88351 -4.10792,6.83016 -4.53907,8.03915 -4.52506,12.68865 0.0173,5.73751 1.56413,9.542 5.65975,13.92023 5.34856,5.71762 10.78263,8.01874 18.9143,8.00946 8.36828,-0.01 15.76107,-3.56024 20.30428,-9.75197 2.59706,-3.53941 3.56974,-6.77588 3.69376,-12.29046 l 0.10553,-4.69266 -3.41007,-6.7992 c -1.87554,-3.73955 -3.41007,-7.18783 -3.41007,-7.66284 0,-1.90841 3.77284,-3.98036 9.40537,-5.1652 7.37112,-1.55056 32.97556,-2.54169 40.1736,-1.55509 l 2.54564,0.34892 0.0192,4.45203 c 0.0641,14.9011 6.18876,25.56701 14.6853,25.57387 3.11832,0.003 3.8123,-0.27789 11.30742,-4.56882 4.23591,-2.42504 5.27088,-2.79264 7.76133,-2.75664 7.03519,0.10169 13.69981,6.64362 14.96089,14.68545 0.86467,5.5139 -0.49833,10.9689 -3.77716,15.11692 -3.20499,4.05461 -6.11558,5.54331 -11.03244,5.64283 -3.90193,0.079 -4.20514,-0.0142 -10.20459,-3.13584 -5.46332,-2.84268 -6.54926,-3.2158 -9.32756,-3.20488 -5.09791,0.02 -8.22476,2.56165 -11.05617,8.98683 -1.27307,2.88891 -2.77985,11.46191 -2.79005,15.87431 -0.004,1.65976 -0.16267,4.314 -0.35297,5.89831 l -0.346,2.88058 -68.23425,0 -68.234258,0 0,-42.79706 z"
       id="path3942" />
  </g>
  <g
     id="layer7"
     transform="translate(-294.625,-57.875)">
    <path
       style="fill:none;stroke:#000000;stroke-width:1.5;stroke-miterlimit:4;stroke-opacity:1;stroke-dasharray:none;display:inline"
       d="m 320.46875,140.84375 c 3.62843,0.0284 5.17589,0.10992 7.78125,0.1875 l -7.1875,-59.3125 c -0.30104,-2.443582 -0.64772,-4.535244 -1.03125,-6.28125 -0.38353,-1.746006 -0.82042,-3.143782 -1.3125,-4.25 -0.49208,-1.106218 -1.02957,-1.913284 -1.65625,-2.4375 -0.62668,-0.524216 -1.33767,-0.78125 -2.125,-0.78125 l -7.03125,0 c -0.97259,0 -1.81049,0.238167 -2.53125,0.75 -0.72076,0.511833 -1.33778,1.314772 -1.8125,2.4375 -0.47472,1.122728 -0.82804,2.573563 -1.0625,4.40625 -0.23446,1.832687 -0.34375,4.045791 -0.34375,6.6875 0,2.311496 0.1281,4.354227 0.34375,6.125 0.21565,1.770773 0.51489,3.263468 0.9375,4.46875 0.42261,1.205282 0.94161,2.134976 1.5625,2.75 0.62089,0.615024 1.34576,0.90625 2.15625,0.90625 l 0.75,0 -0.59375,44.21875 9.09375,0 c 0.42437,0 0.39663,0.0306 0.8125,0.0312 l 0.21875,-26.8125 3.03125,26.90625 z"
       id="path4089" />
    <path
       style="fill:none;stroke:#000000;stroke-width:1.5;stroke-miterlimit:4;stroke-opacity:1;stroke-dasharray:none;display:inline"
       d="M 320.46875,140.84375 317.4375,113.9375 317.21875,140.75 c 1.66305,0.002 1.73431,0.0819 3.25,0.0937 z"
       id="path4087" />
    <path
       style="fill:none;stroke:#000000;stroke-width:1.5;stroke-miterlimit:4;stroke-opacity:1;stroke-dasharray:none;display:inline"
       d="m 342.40625,142.3125 -0.21875,-28.375 -3.125,27.40625 c 1.23669,0.21625 2.23659,0.64071 3.34375,0.96875 z"
       id="path4085" />
    <path
       style="fill:none;stroke:#000000;stroke-width:1.5;stroke-miterlimit:4;stroke-opacity:1;stroke-dasharray:none;display:inline"
       d="M 352.40625,148.90625 351.71875,96.5 l 0.75,0 c 0.81049,0 1.50411,-0.291226 2.125,-0.90625 0.62089,-0.615024 1.17114,-1.544718 1.59375,-2.75 0.42261,-1.205282 0.72185,-2.697977 0.9375,-4.46875 0.21565,-1.770773 0.34375,-3.813504 0.34375,-6.125 0,-2.641709 -0.10929,-4.854813 -0.34375,-6.6875 -0.23446,-1.832687 -0.58778,-3.283522 -1.0625,-4.40625 -0.47472,-1.122728 -1.09174,-1.925667 -1.8125,-2.4375 -0.72076,-0.511833 -1.55866,-0.75 -2.53125,-0.75 l -7.03125,0 c -0.78733,0 -1.49832,0.257034 -2.125,0.78125 -0.62668,0.524216 -1.16417,1.331282 -1.65625,2.4375 -0.49208,1.106218 -0.92896,2.503994 -1.3125,4.25 -0.38354,1.746006 -0.73021,3.837668 -1.03125,6.28125 l -7,59.40625 c 2.00955,0.0925 6.72832,0.09 7.46875,0.21875 0.0107,0.002 0.0206,-0.002 0.0312,0 l 3.125,-27.40625 0.21875,28.375 c 4.69824,1.39202 8.21912,3.66977 10,6.59375 z"
       id="path4083" />
    <path
       style="fill:none;stroke:#000000;stroke-width:1.5;stroke-miterlimit:4;stroke-opacity:1;stroke-dasharray:none;display:inline"
       d="m 352.875,184.0625 -0.3125,-25.09375 c -0.66428,1.50927 -1.49869,3.10392 -2.96875,5.5 -3.25776,5.30989 -3.76771,7.55547 -2.59375,11.59375 0.81548,2.80516 3.12098,5.77284 5.875,8 z"
       id="path4081" />
    <path
       style="fill:none;stroke:#000000;stroke-width:1.5;stroke-miterlimit:4;stroke-opacity:1;stroke-dasharray:none;display:inline"
       d="m 377.53125,159.84375 0,7.46875 c 0,4.68904 0.0925,8.82756 0.3125,12.40625 0.0609,0.99005 0.20016,1.59695 0.28125,2.5 2.75986,-2.88635 3.79875,-5.33116 3.90625,-9.53125 0.0898,-3.50835 -0.0603,-3.98376 -2.71875,-8.90625 -0.89229,-1.65223 -1.21635,-2.67107 -1.78125,-3.9375 z"
       id="path4098" />
    <path
       style="fill:none;stroke:#000000;stroke-width:1.5;stroke-miterlimit:4;stroke-opacity:1;stroke-dasharray:none;display:inline"
       d="m 366.78125,187.5625 c 4.78659,-0.38938 7.54095,-1.56188 10.71875,-4.65625 0.24579,-0.23934 0.40297,-0.45529 0.625,-0.6875 -0.0811,-0.90305 -0.22039,-1.50995 -0.28125,-2.5 -0.21999,-3.57869 -0.3125,-7.71721 -0.3125,-12.40625 l 0,-7.46875 c -1.51553,-3.3976 -2.31193,-6.03379 -1.9375,-8.25 0.2132,-1.26195 0.93163,-2.57734 1.9375,-3.8125 l 0,-40.4375 c 0,-1.71711 -0.20818,-3.10488 -0.625,-4.0625 -0.20841,-0.47881 -0.46863,-0.84196 -0.78125,-1.09375 -0.31262,-0.25179 -0.67693,-0.40625 -1.09375,-0.40625 l -8.53125,0 c -0.94943,0 -1.78359,0.22107 -2.5,0.6875 -0.71641,0.46643 -1.332,1.1768 -1.8125,2.25 -0.4805,1.0732 -0.8208,2.4922 -1.0625,4.3125 -0.2417,1.8203 -0.375,4.04225 -0.375,6.75 0,2.3115 0.10554,4.38548 0.3125,6.15625 0.20696,1.77077 0.52647,3.26347 0.9375,4.46875 0.41103,1.20528 0.91904,2.10373 1.53125,2.71875 0.61221,0.61502 1.31451,0.9375 2.125,0.9375 l 0.75,0 0,43.0625 c 0,4.22674 0.0729,8.1766 0.21875,11.875 0.0362,0.91884 0.11094,1.67627 0.15625,2.5625 z"
       id="path4096" />
    <path
       style="fill:none;stroke:#000000;stroke-width:1.5;stroke-miterlimit:4;stroke-opacity:1;stroke-dasharray:none;display:inline"
       d="m 424.15625,118.65625 c -1.16513,0.31635 -1.90905,0.36575 -3.65625,1 -4.66156,1.6922 -6.07058,1.94445 -10,1.90625 -2.51052,-0.0245 -5.22225,-0.18558 -6.03125,-0.375 -0.2022,-0.0473 -0.44658,-0.21615 -0.65625,-0.28125 l 0,19.375 c 6.31134,-0.45352 13.18893,-0.69077 20.34375,-0.53125 l 0,-21.09375 z"
       id="path4142" />
    <path
       style="fill:none;stroke:#000000;stroke-width:1.5;stroke-miterlimit:4;stroke-opacity:1;stroke-dasharray:none;display:inline"
       d="m 424.15625,118.65625 0,21.09375 c 0.14906,0.003 0.2882,-0.004 0.4375,0 l 9.53125,0.21875 -0.21875,-8.25 c -0.24357,-8.66392 -0.52461,-9.77671 -3.09375,-12.53125 -1.39493,-1.49559 -3.39841,-1.41579 -6.65625,-0.53125 z"
       id="path4094" />
    <path
       style="fill:none;stroke:#000000;stroke-width:1.5;stroke-miterlimit:4;stroke-opacity:1;stroke-dasharray:none;display:inline"
       d="m 389.15625,103.8125 c -0.23486,0.32945 -0.55438,0.46934 -0.75,0.90625 -0.4805,1.0732 -0.8208,2.4922 -1.0625,4.3125 -0.2417,1.8203 -0.375,4.04225 -0.375,6.75 0,2.3115 0.0969,4.38548 0.3125,6.15625 0.21565,1.77077 0.54614,3.26347 0.96875,4.46875 0.42261,1.20528 0.94161,2.10373 1.5625,2.71875 0.62089,0.61502 1.34576,0.9375 2.15625,0.9375 l 0.75,0 0,11.4375 c 3.29183,-0.513 6.96307,-0.92193 11.09375,-1.21875 l 0,-19.375 c -4.41292,-1.37005 -10.32101,-6.45505 -12.6875,-11.09375 -0.90066,-1.76544 -1.49073,-3.84153 -1.96875,-6 z"
       id="path4092" />
    <path
       style="fill:none;stroke:#000000;stroke-width:1.5;stroke-miterlimit:4;stroke-opacity:1;stroke-dasharray:none;display:inline"
       d="m 436.96875,67.96875 -12.8125,0 c -0.92627,0 -1.7428,0.248779 -2.4375,0.78125 -0.6947,0.532471 -1.25561,1.360761 -1.71875,2.5 -0.43677,1.074373 -0.73793,2.478043 -0.96875,4.15625 1.36623,0.722524 2.49061,1.258471 3.96875,2.15625 2.53513,1.53977 5.05629,2.8125 5.625,2.8125 2.474,0 6.41045,-3.270231 7.59375,-6.3125 0.28487,-0.732396 0.54785,-3.503913 0.75,-6.09375 z"
       id="path4101" />
    <path
       style="fill:none;stroke:#000000;stroke-width:1.5;stroke-miterlimit:4;stroke-opacity:1;stroke-dasharray:none;display:inline"
       d="m 297.375,60.625 0,40.0625 0,40.03125 9.9375,0 0.59375,-44.21875 -0.75,0 c -0.81049,0 -1.53536,-0.291226 -2.15625,-0.90625 -0.62089,-0.615024 -1.13989,-1.544718 -1.5625,-2.75 -0.42261,-1.205282 -0.72185,-2.697977 -0.9375,-4.46875 -0.21565,-1.770773 -0.34375,-3.813504 -0.34375,-6.125 0,-2.641709 0.10929,-4.854813 0.34375,-6.6875 0.23446,-1.832687 0.58778,-3.283522 1.0625,-4.40625 0.47472,-1.122728 1.09174,-1.925667 1.8125,-2.4375 0.72076,-0.511833 1.55866,-0.75 2.53125,-0.75 l 7.03125,0 c 0.78733,0 1.49832,0.257034 2.125,0.78125 0.62668,0.524216 1.16417,1.331282 1.65625,2.4375 0.49208,1.106218 0.92897,2.503994 1.3125,4.25 0.38353,1.746006 0.73021,3.837668 1.03125,6.28125 l 7.1875,59.3125 c 1.10924,0.033 2.42126,0.0527 3.3125,0.0937 l 7,-59.40625 c 0.30104,-2.443582 0.64771,-4.535244 1.03125,-6.28125 0.38354,-1.746006 0.82042,-3.143782 1.3125,-4.25 0.49208,-1.106218 1.02957,-1.913284 1.65625,-2.4375 0.62668,-0.524216 1.33767,-0.78125 2.125,-0.78125 l 7.03125,0 c 0.97259,0 1.81049,0.238167 2.53125,0.75 0.72076,0.511833 1.33778,1.314772 1.8125,2.4375 0.47472,1.122728 0.82804,2.573563 1.0625,4.40625 0.23446,1.832687 0.34375,4.045791 0.34375,6.6875 0,2.311496 -0.1281,4.354227 -0.34375,6.125 -0.21565,1.770773 -0.51489,3.263468 -0.9375,4.46875 -0.42261,1.205282 -0.97286,2.134976 -1.59375,2.75 -0.62089,0.615024 -1.31451,0.90625 -2.125,0.90625 l -0.75,0 0.6875,52.40625 c 0.88207,1.44825 1.47601,2.97497 1.46875,4.65625 -0.008,1.75809 -0.44621,3.43801 -1.3125,5.40625 l 0.3125,25.09375 c 1.3717,1.10928 2.82095,2.09932 4.3125,2.6875 2.48923,0.98161 3.88735,1.13036 7.96875,0.96875 0.61171,-0.0242 1.07428,-0.11145 1.625,-0.15625 -0.0453,-0.88623 -0.12002,-1.64366 -0.15625,-2.5625 -0.14582,-3.6984 -0.21875,-7.64826 -0.21875,-11.875 l 0,-43.0625 -0.75,0 c -0.81049,0 -1.51279,-0.32248 -2.125,-0.9375 -0.61221,-0.61502 -1.12022,-1.51347 -1.53125,-2.71875 -0.41103,-1.20528 -0.73054,-2.69798 -0.9375,-4.46875 -0.20696,-1.77077 -0.3125,-3.84475 -0.3125,-6.15625 0,-2.70775 0.1333,-4.9297 0.375,-6.75 0.2417,-1.8203 0.582,-3.2393 1.0625,-4.3125 0.4805,-1.0732 1.09609,-1.78357 1.8125,-2.25 0.71641,-0.46643 1.55057,-0.6875 2.5,-0.6875 l 8.53125,0 c 0.41682,0 0.78113,0.15446 1.09375,0.40625 0.31262,0.25179 0.57284,0.61494 0.78125,1.09375 0.41682,0.95762 0.625,2.34539 0.625,4.0625 l 0,40.4375 c 1.17416,-1.44183 2.75403,-2.7687 4.59375,-3.6875 2.08931,-1.04345 6.01926,-1.88085 10.59375,-2.59375 l 0,-11.4375 -0.75,0 c -0.81049,0 -1.53536,-0.32248 -2.15625,-0.9375 -0.62089,-0.61502 -1.13989,-1.51347 -1.5625,-2.71875 -0.42261,-1.20528 -0.7531,-2.69798 -0.96875,-4.46875 -0.21565,-1.77077 -0.3125,-3.84475 -0.3125,-6.15625 0,-2.70775 0.1333,-4.9297 0.375,-6.75 0.2417,-1.8203 0.582,-3.2393 1.0625,-4.3125 0.19562,-0.43691 0.51514,-0.5768 0.75,-0.90625 -1.05402,-4.759388 -1.14981,-10.053534 0.0937,-14.25 1.97036,-6.64904 8.03026,-13.283927 14.15625,-15.5 3.67996,-1.331224 9.78126,-1.418791 12.78125,-0.1875 0.50509,0.207304 1.86678,1.014585 2.84375,1.53125 0.23082,-1.678207 0.53198,-3.081877 0.96875,-4.15625 0.46314,-1.139239 1.02405,-1.967529 1.71875,-2.5 0.6947,-0.532471 1.51123,-0.78125 2.4375,-0.78125 l 12.8125,0 c 0.0477,-0.611487 0.15647,-0.817848 0.1875,-1.4375 l 0.3125,-5.90625 -70.0625,0 -70.03125,0 z"
       id="path3936-4" />
    <path
       style="fill:none;stroke:#000000;stroke-width:1.5;stroke-miterlimit:4;stroke-opacity:1;stroke-dasharray:none;display:inline"
       d="m 514.5625,93.6875 c 0.0529,-0.10837 0.13724,-0.134295 0.1875,-0.25 0.4805,-1.106218 0.85205,-2.561179 1.09375,-4.40625 0.2417,-1.845071 0.34375,-4.073497 0.34375,-6.78125 0,-2.773795 -0.10205,-5.042313 -0.34375,-6.875 -0.2417,-1.832687 -0.61325,-3.224564 -1.09375,-4.28125 -0.4805,-1.056686 -1.09609,-1.77296 -1.8125,-2.21875 -0.71641,-0.44579 -1.55057,-0.625 -2.5,-0.625 l -26.84375,0 c -0.94943,0 -1.78359,0.189822 -2.5,0.65625 -0.71641,0.466428 -1.332,1.208054 -1.8125,2.28125 -0.4805,1.073196 -0.8208,2.492196 -1.0625,4.3125 -0.2417,1.820304 -0.375,4.042248 -0.375,6.75 0,2.707753 0.1333,4.936179 0.375,6.78125 0.2417,1.845071 0.582,3.300032 1.0625,4.40625 0.4805,1.106218 1.09609,1.883806 1.8125,2.375 0.71641,0.491194 1.55057,0.6875 2.5,0.6875 l 7.59375,0 0,0.78125 c 0.62058,-0.457006 1.20263,-0.949717 1.875,-1.34375 6.58544,-3.859324 14.5381,-4.402822 21.5,-2.25 z"
       id="path4104" />
    <path
       style="fill:none;stroke:#000000;stroke-width:1.5;stroke-miterlimit:4;stroke-opacity:1;stroke-dasharray:none;display:inline"
       d="m 562.28125,140.59375 0,-12.375 c 0,-2.70775 -0.0836,-5.07532 -0.25,-7.09375 -0.16644,-2.01843 -0.41653,-3.69388 -0.78125,-5.03125 -0.36472,-1.33737 -0.84266,-2.33544 -1.4375,-3 -0.29742,-0.33228 -0.60783,-0.58438 -0.96875,-0.75 -0.36092,-0.16562 -0.7591,-0.25 -1.1875,-0.25 -0.76417,0 -1.45378,0.30774 -2.03125,0.90625 -0.57747,0.59851 -1.04962,1.48222 -1.4375,2.6875 -0.38788,1.20528 -0.67961,2.71095 -0.875,4.53125 -0.19539,1.8203 -0.28125,3.96267 -0.28125,6.40625 l 0,1.59375 -7.875,0 0,-33.03125 21.03125,0 0,13.46875 c 0,2.70775 0.0566,5.0818 0.21875,7.125 0.1621,2.0432 0.41074,3.75461 0.78125,5.125 0.37051,1.37039 0.87477,2.40443 1.5,3.09375 0.31262,0.34466 0.64627,0.6084 1.03125,0.78125 0.38498,0.17285 0.81811,0.25 1.28125,0.25 0.45156,0 0.86882,-0.0839 1.25,-0.25 0.38118,-0.16614 0.71646,-0.41566 1.03125,-0.75 0.62958,-0.66868 1.14337,-1.67737 1.53125,-3.03125 0.38788,-1.35388 0.63448,-3.03817 0.8125,-5.09375 0.17802,-2.05558 0.28125,-4.4762 0.28125,-7.25 l 0,-28.78125 c 0,-2.311496 -0.0726,-4.202122 -0.21875,-5.75 -0.14618,-1.547878 -0.36561,-2.748161 -0.71875,-3.65625 -0.35314,-0.908089 -0.84786,-1.54537 -1.46875,-1.9375 -0.62089,-0.39213 -1.36307,-0.5625 -2.3125,-0.5625 l -37.0625,0 c -0.92627,0 -1.7428,0.248779 -2.4375,0.78125 -0.6947,0.532471 -1.25561,1.360761 -1.71875,2.5 -0.46314,1.139239 -0.83093,2.585946 -1.0625,4.40625 -0.23157,1.820304 -0.34375,4.018083 -0.34375,6.59375 0,2.311496 0.12955,4.354227 0.34375,6.125 0.2142,1.770773 0.52068,3.263468 0.9375,4.46875 0.41682,1.205282 0.92338,2.134976 1.53125,2.75 0.60787,0.615024 1.30642,0.90625 2.09375,0.90625 l 0.65625,0 0,42.3125 c 2.87285,0.56197 6.09345,1.0506 9.96875,1.3125 4.88931,0.33043 11.71504,0.46097 18.1875,0.46875 z"
       id="path4107" />
    <path
       style="fill:none;stroke:#000000;stroke-width:1.5;stroke-miterlimit:4;stroke-opacity:1;stroke-dasharray:none;display:inline"
       d="m 403.8125,113.625 0,-6.28125 c 0,-1.71711 -0.21627,-3.10488 -0.65625,-4.0625 -0.21999,-0.47881 -0.4912,-0.84196 -0.8125,-1.09375 -0.3213,-0.25179 -0.70818,-0.40625 -1.125,-0.40625 l -5.875,0 c 0.68729,3.19967 1.57515,5.19122 3.875,8.03125 1.44863,1.78889 2.89343,2.98652 4.59375,3.8125 z"
       id="path4117" />
    <path
       style="fill:none;stroke:#000000;stroke-width:1.5;stroke-miterlimit:4;stroke-opacity:1;stroke-dasharray:none;display:inline"
       d="m 410.125,79.59375 c -9.4502,0.12929 -16.96388,10.70201 -15.0625,21.1875 0.0746,0.41118 0.20167,0.62951 0.28125,1 l 5.875,0 c 0.41682,0 0.8037,0.15446 1.125,0.40625 0.3213,0.25179 0.59251,0.61494 0.8125,1.09375 0.43998,0.95762 0.65625,2.34539 0.65625,4.0625 l 0,6.28125 c 1.38124,0.67097 2.92198,1.10516 4.84375,1.34375 3.45459,0.42889 4.08304,0.30446 10.09375,-1.71875 2.09504,-0.70519 3.82714,-1.17881 5.40625,-1.53125 l 0,-15.21875 -0.65625,0 c -0.78733,0 -1.48588,-0.291226 -2.09375,-0.90625 -0.60787,-0.615024 -1.11443,-1.544718 -1.53125,-2.75 -0.41682,-1.205282 -0.7233,-2.697977 -0.9375,-4.46875 -0.19562,-1.617162 -0.29511,-3.524713 -0.3125,-5.59375 -4.50273,-2.567685 -6.03322,-3.221259 -8.5,-3.1875 z"
       id="path4114" />
    <path
       style="fill:none;stroke:#000000;stroke-width:1.5;stroke-miterlimit:4;stroke-opacity:1;stroke-dasharray:none;display:inline"
       d="m 440.59375,137.1875 0.96875,0 c 0.89154,0 1.74989,-0.0922 2.53125,-0.3125 0.78136,-0.22032 1.48543,-0.56453 2.15625,-1 0.67082,-0.43547 1.31507,-0.97953 1.875,-1.625 0.55993,-0.64547 1.05134,-1.3997 1.5,-2.25 0.44866,-0.8503 0.85046,-1.79377 1.1875,-2.84375 0.33704,-1.04998 0.61869,-2.19301 0.84375,-3.4375 0.45011,-2.48899 0.65625,-5.35766 0.65625,-8.59375 0,-3.23609 -0.20614,-6.09179 -0.65625,-8.53125 -0.22506,-1.21973 -0.50671,-2.32473 -0.84375,-3.34375 -0.33704,-1.01902 -0.73884,-1.93272 -1.1875,-2.75 -0.44866,-0.81728 -0.94007,-1.54174 -1.5,-2.15625 -0.55993,-0.614508 -1.20418,-1.120546 -1.875,-1.53125 -0.67082,-0.410704 -1.37489,-0.731632 -2.15625,-0.9375 -0.78136,-0.205868 -1.63971,-0.3125 -2.53125,-0.3125 l -6.375,0 0,16.59375 c 0.16529,0.15194 0.33287,0.21089 0.5,0.375 3.80083,3.73212 4.90125,7.90582 4.90625,18.875 l 0,3.78125 z"
       id="path4112" />
    <path
       style="fill:none;stroke:#000000;stroke-width:1.5;stroke-miterlimit:4;stroke-opacity:1;stroke-dasharray:none;display:inline"
       d="m 463.4375,139.71875 c 0.12711,-0.73081 0.3241,-1.33347 0.4375,-2.09375 0.4682,-3.1391 0.82822,-6.5505 1.0625,-10.1875 0.23428,-3.637 0.34375,-7.52858 0.34375,-11.65625 0,-3.89652 -0.10947,-7.56165 -0.34375,-11 -0.23428,-3.43835 -0.5943,-6.621824 -1.0625,-9.59375 -0.4682,-2.971926 -1.04824,-5.721506 -1.75,-8.21875 -0.70176,-2.497244 -1.50254,-4.766943 -2.4375,-6.78125 -0.93496,-2.014307 -1.98846,-3.789386 -3.15625,-5.3125 -1.16779,-1.523114 -2.47474,-2.788835 -3.875,-3.8125 -1.40026,-1.023665 -2.89888,-1.79654 -4.53125,-2.3125 -1.4285,-0.451521 -2.98775,-0.630714 -4.59375,-0.6875 -0.22918,3.035543 -0.60086,6.45025 -1.03125,7.84375 -1.10667,3.583143 -4.5275,7.47714 -8.53125,9.65625 -4.13104,2.24839 -7.24848,1.85983 -13.21875,-1.625 -1.09671,-0.64015 -1.30586,-0.689137 -2.125,-1.15625 0.0174,2.069037 0.11688,3.976588 0.3125,5.59375 0.2142,1.770773 0.52068,3.263468 0.9375,4.46875 0.41682,1.205282 0.92338,2.134976 1.53125,2.75 C 422.01412,96.208774 422.71267,96.5 423.5,96.5 l 0.65625,0 0,15.21875 c 5.11602,-1.14184 7.98471,-0.36295 11.03125,2.4375 l 0,-16.59375 6.375,0 c 0.89154,0 1.74989,0.106632 2.53125,0.3125 0.78136,0.205868 1.48543,0.526796 2.15625,0.9375 0.67082,0.410704 1.31507,0.916742 1.875,1.53125 0.55993,0.61451 1.05134,1.33897 1.5,2.15625 0.44866,0.81728 0.85046,1.73098 1.1875,2.75 0.33704,1.01902 0.61869,2.12402 0.84375,3.34375 0.45011,2.43946 0.65625,5.29516 0.65625,8.53125 0,3.23609 -0.20614,6.10476 -0.65625,8.59375 -0.22506,1.24449 -0.50671,2.38752 -0.84375,3.4375 -0.33704,1.04998 -0.73884,1.99345 -1.1875,2.84375 -0.44866,0.8503 -0.94007,1.60453 -1.5,2.25 -0.55993,0.64547 -1.20418,1.18953 -1.875,1.625 -0.67082,0.43547 -1.37489,0.77968 -2.15625,1 -0.78136,0.22032 -1.63971,0.3125 -2.53125,0.3125 l -0.96875,0 0,2.90625 18.3125,-0.1875 c 2.24467,-0.0254 2.66769,-0.15221 4.53125,-0.1875 z"
       id="path4110" />
    <path
       style="fill:none;stroke:#000000;stroke-width:1.5;stroke-miterlimit:4;stroke-opacity:1;stroke-dasharray:none;display:inline"
       d="m 444.03125,60.625 -0.3125,6.15625 c -0.0236,0.477489 -0.14999,0.784437 -0.1875,1.28125 1.606,0.05679 3.16525,0.235979 4.59375,0.6875 1.63237,0.51596 3.13099,1.288835 4.53125,2.3125 1.40026,1.023665 2.70721,2.289386 3.875,3.8125 1.16779,1.523114 2.22129,3.298193 3.15625,5.3125 0.93496,2.014307 1.73574,4.284006 2.4375,6.78125 0.70176,2.497244 1.2818,5.246824 1.75,8.21875 0.4682,2.971926 0.82822,6.1554 1.0625,9.59375 0.23428,3.43835 0.34375,7.10348 0.34375,11 0,4.12767 -0.10947,8.01925 -0.34375,11.65625 -0.23428,3.637 -0.5943,7.0484 -1.0625,10.1875 -0.1134,0.76028 -0.31039,1.36294 -0.4375,2.09375 14.30242,-0.27085 19.66576,-0.80695 23.0625,-2.90625 3.72338,-2.30117 3.75234,-3.73959 0.15625,-9.71875 -1.51991,-2.52712 -3.12952,-5.46373 -3.5625,-6.5 -3.20759,-7.67684 0.46594,-17.69521 8.09375,-23.3125 l 0,-0.78125 -7.59375,0 c -0.94943,0 -1.78359,-0.196306 -2.5,-0.6875 -0.71641,-0.491194 -1.332,-1.268782 -1.8125,-2.375 -0.4805,-1.106218 -0.8208,-2.561179 -1.0625,-4.40625 -0.2417,-1.845071 -0.375,-4.073497 -0.375,-6.78125 0,-2.707752 0.1333,-4.929696 0.375,-6.75 0.2417,-1.820304 0.582,-3.239304 1.0625,-4.3125 0.4805,-1.073196 1.09609,-1.814822 1.8125,-2.28125 0.71641,-0.466428 1.55057,-0.65625 2.5,-0.65625 l 26.84375,0 c 0.94943,0 1.78359,0.17921 2.5,0.625 0.71641,0.44579 1.332,1.162064 1.8125,2.21875 0.4805,1.056686 0.85205,2.448563 1.09375,4.28125 0.2417,1.832687 0.34375,4.101205 0.34375,6.875 0,2.707753 -0.10205,4.936179 -0.34375,6.78125 -0.2417,1.845071 -0.61325,3.300032 -1.09375,4.40625 -0.0503,0.115705 -0.13465,0.14163 -0.1875,0.25 4.93533,1.526148 9.38151,4.366384 12.4375,8.53125 2.59776,3.54037 3.56872,6.69512 3.6875,12.21875 l 0.0937,4.71875 -3.40625,6.75 c -1.86634,3.70935 -3.375,7.16814 -3.375,7.6875 0,2.1844 3.85148,3.99156 10.125,5.21875 l 0,-42.3125 -0.65625,0 c -0.78733,0 -1.48588,-0.291226 -2.09375,-0.90625 -0.60787,-0.615024 -1.11443,-1.544718 -1.53125,-2.75 -0.41682,-1.205282 -0.7233,-2.697977 -0.9375,-4.46875 -0.2142,-1.770773 -0.34375,-3.813504 -0.34375,-6.125 0,-2.575667 0.11218,-4.773446 0.34375,-6.59375 0.23157,-1.820304 0.59936,-3.267011 1.0625,-4.40625 0.46314,-1.139239 1.02405,-1.967529 1.71875,-2.5 0.6947,-0.532471 1.51123,-0.78125 2.4375,-0.78125 l 37.0625,0 c 0.94943,0 1.69161,0.17037 2.3125,0.5625 0.62089,0.39213 1.11561,1.029411 1.46875,1.9375 0.35314,0.908089 0.57257,2.108372 0.71875,3.65625 0.14618,1.547878 0.21875,3.438504 0.21875,5.75 l 0,28.78125 c 0,2.7738 -0.10323,5.19442 -0.28125,7.25 -0.17802,2.05558 -0.42462,3.73987 -0.8125,5.09375 -0.38788,1.35388 -0.90167,2.36257 -1.53125,3.03125 -0.31479,0.33434 -0.65007,0.58386 -1.03125,0.75 -0.38118,0.16614 -0.79844,0.25 -1.25,0.25 -0.46314,0 -0.89627,-0.0772 -1.28125,-0.25 -0.38498,-0.17285 -0.71863,-0.43659 -1.03125,-0.78125 -0.62523,-0.68932 -1.12949,-1.72336 -1.5,-3.09375 -0.37051,-1.37039 -0.61915,-3.0818 -0.78125,-5.125 -0.1621,-2.0432 -0.21875,-4.41725 -0.21875,-7.125 l 0,-13.46875 -21.03125,0 0,33.03125 7.875,0 0,-1.59375 c 0,-2.44358 0.0859,-4.58595 0.28125,-6.40625 0.19539,-1.8203 0.48712,-3.32597 0.875,-4.53125 0.38788,-1.20528 0.86003,-2.08899 1.4375,-2.6875 0.57747,-0.59851 1.26708,-0.90625 2.03125,-0.90625 0.4284,0 0.82658,0.0844 1.1875,0.25 0.36092,0.16562 0.67133,0.41772 0.96875,0.75 0.59484,0.66456 1.07278,1.66263 1.4375,3 0.36472,1.33737 0.61481,3.01282 0.78125,5.03125 0.16644,2.01843 0.25,4.386 0.25,7.09375 l 0,12.375 c 4.69961,0.006 9.41293,-0.0285 12.09375,-0.21875 l 5.03125,-0.34375 0,-39.71875 0,-39.6875 -67.6875,0 -67.6875,0 z"
       id="path3938-2" />
    <path
       style="fill:none;stroke:#000000;stroke-width:1.5;stroke-miterlimit:4;stroke-opacity:1;stroke-dasharray:none;display:inline"
       d="m 534.125,145.34375 c -4.24342,-0.69402 -7.89057,-1.49332 -9.90625,-2.5 -3.41574,-1.7059 -6.06917,-4.7337 -6.53125,-7.46875 -0.50563,-2.9928 0.4091,-5.98869 3.75,-12.40625 2.66309,-5.11529 2.83187,-5.62549 2.6875,-9 -0.18784,-4.39053 -1.28868,-6.81049 -4.5,-9.9375 -3.89736,-3.79504 -6.39465,-4.69745 -13.1875,-4.71875 -1.80743,-0.0057 -2.60605,0.08498 -3.59375,0.15625 l 0,93.1875 7.59375,0 c 0.94943,0 1.79227,0.22107 2.5,0.6875 0.70773,0.46643 1.28107,1.1768 1.75,2.25 0.46893,1.0732 0.82948,2.4922 1.0625,4.3125 0.23302,1.8203 0.34375,4.04225 0.34375,6.75 0,2.50962 -0.0867,4.66083 -0.3125,6.46875 -0.22578,1.80792 -0.56811,3.28175 -1.03125,4.4375 -0.46314,1.15575 -1.06918,2.00939 -1.78125,2.5625 -0.71207,0.55311 -1.55866,0.8125 -2.53125,0.8125 l -26.84375,0 c -0.94943,0 -1.78359,-0.22756 -2.5,-0.71875 -0.71641,-0.49119 -1.332,-1.23753 -1.8125,-2.34375 -0.4805,-1.10622 -0.8208,-2.56118 -1.0625,-4.40625 -0.15634,-1.19348 -0.19457,-2.86096 -0.25,-4.40625 -2.22456,1.29727 -4.66887,2.11021 -7.8125,2.46875 -5.71392,0.65169 -7.95373,0.12251 -14.6875,-3.3125 -6.80845,-3.47311 -7.23371,-3.5702 -9.03125,-2.15625 -3.14538,2.47415 -4.83059,8.64059 -5.59375,20.6875 l -0.34375,5.625 69.46875,0 69.4375,0 0,-42.8125 0,-42.78125 -10.84375,0.34375 c -2.14692,0.0668 -4.17478,-0.0105 -6.28125,0 l 0,7.78125 c 0,2.70775 -0.0836,5.04407 -0.25,7.0625 -0.16644,2.01843 -0.41653,3.69388 -0.78125,5.03125 -0.36472,1.33737 -0.84266,2.33544 -1.4375,3 -0.29742,0.33228 -0.60783,0.58438 -0.96875,0.75 -0.36092,0.16562 -0.7591,0.25 -1.1875,0.25 -0.76417,0 -1.45378,-0.27826 -2.03125,-0.84375 -0.57747,-0.56549 -1.04962,-1.42326 -1.4375,-2.5625 -0.38788,-1.13924 -0.67961,-2.56001 -0.875,-4.28125 -0.19539,-1.72124 -0.28125,-3.71975 -0.28125,-6.03125 l 0,-2.375 -7.875,0 0,37.75 2.5,0 c 0.92627,0 1.7428,0.23168 2.4375,0.71875 0.6947,0.48707 1.25561,1.25404 1.71875,2.34375 0.46314,1.08971 0.79968,2.50458 1.03125,4.3125 0.23157,1.80792 0.375,3.98329 0.375,6.625 0,2.64171 -0.14343,4.85481 -0.375,6.6875 -0.23157,1.83269 -0.56811,3.28352 -1.03125,4.40625 -0.46314,1.12273 -1.02405,1.92567 -1.71875,2.4375 -0.6947,0.51183 -1.51123,0.75 -2.4375,0.75 l -13.53125,0 c -0.92627,0 -1.7428,-0.23817 -2.4375,-0.75 -0.6947,-0.51183 -1.25561,-1.31477 -1.71875,-2.4375 -0.46314,-1.12273 -0.83093,-2.57356 -1.0625,-4.40625 -0.23157,-1.83269 -0.34375,-4.04579 -0.34375,-6.6875 0,-2.24545 0.0997,-4.23513 0.3125,-5.96875 0.21275,-1.73362 0.55772,-3.18623 0.96875,-4.375 0.41103,-1.18877 0.90516,-2.10785 1.5,-2.71875 0.59484,-0.6109 1.26708,-0.9375 2.03125,-0.9375 l 0.75,0 0,-47.3125 z"
       id="path4078" />
    <path
       style="fill:none;stroke:#000000;stroke-width:1.5;stroke-miterlimit:4;stroke-opacity:1;stroke-dasharray:none;display:inline"
       d="m 534.125,145.34375 0,47.3125 -0.75,0 c -0.76417,0 -1.43641,0.3266 -2.03125,0.9375 -0.59484,0.6109 -1.08897,1.52998 -1.5,2.71875 -0.41103,1.18877 -0.756,2.64138 -0.96875,4.375 -0.21275,1.73362 -0.3125,3.7233 -0.3125,5.96875 0,2.64171 0.11218,4.85481 0.34375,6.6875 0.23157,1.83269 0.59936,3.28352 1.0625,4.40625 0.46314,1.12273 1.02405,1.92567 1.71875,2.4375 0.6947,0.51183 1.51123,0.75 2.4375,0.75 l 13.53125,0 c 0.92627,0 1.7428,-0.23817 2.4375,-0.75 0.6947,-0.51183 1.25561,-1.31477 1.71875,-2.4375 0.46314,-1.12273 0.79968,-2.57356 1.03125,-4.40625 0.23157,-1.83269 0.375,-4.04579 0.375,-6.6875 0,-2.64171 -0.14343,-4.81708 -0.375,-6.625 -0.23157,-1.80792 -0.56811,-3.22279 -1.03125,-4.3125 -0.46314,-1.08971 -1.02405,-1.85668 -1.71875,-2.34375 -0.6947,-0.48707 -1.51123,-0.71875 -2.4375,-0.71875 l -2.5,0 0,-37.75 7.875,0 0,2.375 c 0,2.3115 0.0859,4.31001 0.28125,6.03125 0.19539,1.72124 0.48712,3.14201 0.875,4.28125 0.38788,1.13924 0.86003,1.99701 1.4375,2.5625 0.57747,0.56549 1.26708,0.84375 2.03125,0.84375 0.4284,0 0.82658,-0.0844 1.1875,-0.25 0.36092,-0.16562 0.67133,-0.41772 0.96875,-0.75 0.59484,-0.66456 1.07278,-1.66263 1.4375,-3 0.36472,-1.33737 0.61481,-3.01282 0.78125,-5.03125 0.16644,-2.01843 0.25,-4.35475 0.25,-7.0625 l 0,-7.78125 c -10.87161,0.0542 -20.79053,-0.57658 -28.15625,-1.78125 z"
       id="path4075" />
    <path
       style="fill:none;stroke:#000000;stroke-width:1.5;stroke-miterlimit:4;stroke-opacity:1;stroke-dasharray:none;display:inline"
       d="m 443.90625,166.09375 c 1.44358,2.26677 3.63874,4.25 5.09375,4.25 0.66063,0 2.92362,-0.98267 5.03125,-2.21875 8.02948,-4.7091 8.98122,-5.07505 13.4375,-5.03125 5.80217,0.0571 9.61728,1.58364 13.9375,5.625 5.57682,5.21685 8.0299,10.83566 8.0625,18.4375 0.009,2.00868 -0.13975,3.80551 -0.40625,5.5 l 2.125,0 0,-51.15625 c -1.77997,1.31358 -3.9335,2.4774 -6.0625,3.1875 -3.37243,1.12482 -5.26132,1.20187 -22.96875,1.375 -0.0174,0.0661 -0.0137,0.15295 -0.0312,0.21875 -0.70176,2.63397 -1.50254,5.00337 -2.4375,7.125 -0.93496,2.12163 -1.98846,3.99169 -3.15625,5.59375 -1.16779,1.60206 -2.47474,2.92474 -3.875,4 -1.40026,1.07526 -2.89888,1.89626 -4.53125,2.4375 -1.31189,0.43498 -2.75716,0.57039 -4.21875,0.65625 z"
       id="path4145" />
    <path
       style="fill:none;stroke:#000000;stroke-width:1.5;stroke-miterlimit:4;stroke-opacity:1;stroke-dasharray:none;display:inline"
       d="m 443.90625,166.09375 c 1.46159,-0.0859 2.90686,-0.22127 4.21875,-0.65625 1.63237,-0.54124 3.13099,-1.36224 4.53125,-2.4375 1.40026,-1.07526 2.70721,-2.39794 3.875,-4 1.16779,-1.60206 2.22129,-3.47212 3.15625,-5.59375 0.93496,-2.12163 1.73574,-4.49103 2.4375,-7.125 0.0175,-0.0658 0.0139,-0.15264 0.0312,-0.21875 -0.57131,0.006 -0.5188,0.0255 -1.125,0.0312 l -20.4375,0.1875 0,4.78125 c 0.011,5.48133 1.08076,11.06928 2.6875,14.21875 0.15409,0.30205 0.43831,0.51936 0.625,0.8125 z"
       id="path4073" />
    <path
       style="fill:none;stroke:#000000;stroke-width:1.5;stroke-miterlimit:4;stroke-opacity:1;stroke-dasharray:none;display:inline"
       d="m 491.1875,107 c -2.11831,3.09279 -3.18535,6.52453 -2.40625,9.4375 0.28184,1.05377 1.37456,3.16302 2.40625,5 l 0,-14.4375 z"
       id="path4071" />
    <path
       style="fill:none;stroke:#000000;stroke-width:1.5;stroke-miterlimit:4;stroke-opacity:1;stroke-dasharray:none;display:inline"
       d="m 491.1875,107 0,14.4375 c 0.21309,0.37941 0.28472,0.68036 0.5,1.03125 4.48833,7.31561 5.29921,10.82339 3.40625,14.8125 -0.65179,1.37355 -2.09003,2.87842 -3.90625,4.21875 l 0,51.15625 -2.125,0 c -0.75038,4.77108 -2.65791,8.51601 -6.15625,12.34375 -1.64099,1.79551 -3.22581,3.06432 -4.9375,4.0625 0.0554,1.54529 0.0937,3.21277 0.25,4.40625 0.2417,1.84507 0.582,3.30003 1.0625,4.40625 0.4805,1.10622 1.09609,1.85256 1.8125,2.34375 0.71641,0.49119 1.55057,0.71875 2.5,0.71875 l 26.84375,0 c 0.97259,0 1.81918,-0.25939 2.53125,-0.8125 0.71207,-0.55311 1.31811,-1.40675 1.78125,-2.5625 0.46314,-1.15575 0.80547,-2.62958 1.03125,-4.4375 0.22578,-1.80792 0.3125,-3.95913 0.3125,-6.46875 0,-2.70775 -0.11073,-4.9297 -0.34375,-6.75 -0.23302,-1.8203 -0.59357,-3.2393 -1.0625,-4.3125 -0.46893,-1.0732 -1.04227,-1.78357 -1.75,-2.25 -0.70773,-0.46643 -1.55057,-0.6875 -2.5,-0.6875 l -7.59375,0 0,-93.1875 c -1.95009,0.140718 -3.27605,0.461926 -5.09375,1.46875 -2.75845,1.52791 -4.94795,3.70521 -6.5625,6.0625 z"
       id="path3940-5" />
    <path
       style="fill:none;stroke:#000000;stroke-width:1.5;stroke-miterlimit:4;stroke-opacity:1;stroke-dasharray:none;display:inline"
       d="m 342.59375,163.59375 c 0.62725,-1.17362 0.90289,-1.94656 1.96875,-3.71875 1.51991,-2.52713 2.74945,-5.19745 2.75,-5.90625 10e-4,-1.51954 -2.19792,-3.4248 -4.84375,-4.65625 l 0.125,14.28125 z"
       id="path4014" />
    <path
       style="fill:none;stroke:#000000;stroke-width:1.5;stroke-miterlimit:4;stroke-opacity:1;stroke-dasharray:none;display:inline"
       d="m 353,192 c -2.5891,-1.28608 -4.97431,-3.03172 -7.3125,-5.53125 -1.21558,-1.29945 -2.17557,-2.54859 -2.96875,-3.8125 l 0.0937,10 -0.71875,0 c -0.81049,0 -1.54404,0.31599 -2.15625,0.90625 -0.61221,0.59026 -1.12022,1.45274 -1.53125,2.625 -0.41103,1.17226 -0.69929,2.66024 -0.90625,4.40625 -0.20696,1.74601 -0.3125,3.75101 -0.3125,6.0625 0,2.70775 0.11073,4.96743 0.34375,6.8125 0.23302,1.84507 0.56232,3.30003 1.03125,4.40625 0.46893,1.10622 1.07352,1.85256 1.78125,2.34375 0.70773,0.49119 1.51932,0.71875 2.46875,0.71875 l 10.1875,0 c 0.94943,0 1.79227,-0.22756 2.5,-0.71875 0.70773,-0.49119 1.28107,-1.23753 1.75,-2.34375 0.46893,-1.10622 0.82948,-2.56118 1.0625,-4.40625 0.23302,-1.84507 0.34375,-4.10475 0.34375,-6.8125 0,-2.31149 -0.10554,-4.31649 -0.3125,-6.0625 -0.20696,-1.74601 -0.49522,-3.23399 -0.90625,-4.40625 -0.41103,-1.17226 -0.95029,-2.03474 -1.5625,-2.625 -0.61221,-0.59026 -1.31451,-0.90625 -2.125,-0.90625 l -0.75,0 L 353,192 z"
       id="path4012" />
    <path
       style="fill:none;stroke:#000000;stroke-width:1.5;stroke-miterlimit:4;stroke-opacity:1;stroke-dasharray:none;display:inline"
       d="m 329,147.1875 0.9375,7.71875 0.90625,-7.65625 c -0.4673,-0.029 -1.348,-0.0363 -1.84375,-0.0625 z"
       id="path4010" />
    <path
       style="fill:none;stroke:#000000;stroke-width:1.5;stroke-miterlimit:4;stroke-opacity:1;stroke-dasharray:none;display:inline"
       d="m 321.15625,147 2.875,25.59375 c 0.25472,2.24545 0.55166,4.13372 0.90625,5.71875 0.35459,1.58503 0.74982,2.85311 1.21875,3.84375 0.46893,0.99064 0.99601,1.7252 1.59375,2.1875 0.59774,0.4623 1.25898,0.65625 2,0.65625 0.74102,0 1.43351,-0.19395 2.03125,-0.65625 0.59774,-0.4623 1.12482,-1.19686 1.59375,-2.1875 0.46893,-0.99064 0.86416,-2.25872 1.21875,-3.84375 0.35459,-1.58503 0.65152,-3.4733 0.90625,-5.71875 l 2.8125,-24.5625 c -1.90233,-0.32324 -4.34973,-0.58742 -7.46875,-0.78125 L 329.9375,154.90625 329,147.1875 c -2.10852,-0.11148 -5.20673,-0.12633 -7.84375,-0.1875 z"
       id="path4008" />
    <path
       style="fill:none;stroke:#000000;stroke-width:1.5;stroke-miterlimit:4;stroke-opacity:1;stroke-dasharray:none;display:inline"
       d="m 392.71875,147.9375 c -0.38099,0.0644 -1.12092,0.12091 -1.4375,0.1875 -5.63253,1.18484 -9.40625,3.24784 -9.40625,5.15625 0,0.47501 1.53071,3.9167 3.40625,7.65625 l 3.40625,6.8125 -0.0937,4.6875 c -0.12402,5.51458 -1.09044,8.74184 -3.6875,12.28125 -1.55004,2.11247 -3.51599,3.78847 -5.65625,5.25 0.17692,0.68039 0.35235,1.40161 0.5625,1.96875 0.34012,0.91789 0.72206,1.69541 1.15625,2.3125 0.43419,0.61709 0.90055,1.06388 1.4375,1.375 0.53695,0.31112 1.13286,0.46875 1.78125,0.46875 0.5905,0 1.16281,-0.14421 1.71875,-0.46875 0.55594,-0.32454 1.08358,-0.83102 1.59375,-1.46875 0.51017,-0.63773 1.01556,-1.40419 1.46875,-2.34375 0.45319,-0.93956 0.86502,-2.0512 1.25,-3.28125 0.76996,-2.4601 1.38265,-5.47732 1.8125,-9.03125 0.42985,-3.55393 0.6875,-7.63055 0.6875,-12.1875 l 0,-19.375 z"
       id="path4063" />
    <path
       style="fill:none;stroke:#000000;stroke-width:1.5;stroke-miterlimit:4;stroke-opacity:1;stroke-dasharray:none;display:inline"
       d="m 444.78125,199.3125 c 1.10168,-0.38239 2.28051,-0.58848 3.625,-0.59375 2.7783,-0.0109 3.84918,0.37607 9.3125,3.21875 5.99945,3.12164 6.31682,3.204 10.21875,3.125 4.91686,-0.0995 7.82626,-1.60164 11.03125,-5.65625 3.27883,-4.14802 4.64592,-9.57985 3.78125,-15.09375 -1.26108,-8.04183 -7.93356,-14.58581 -14.96875,-14.6875 -2.49045,-0.036 -3.51409,0.32496 -7.75,2.75 -7.49512,4.29093 -8.19418,4.5655 -11.3125,4.5625 -5.23863,-0.004 -9.55362,-4.08823 -12.125,-10.6875 l -1.40625,0 0,26.40625 4.53125,0 c 0.92627,0 1.7428,0.23168 2.4375,0.71875 0.6947,0.48707 1.28686,1.25404 1.75,2.34375 0.38633,0.90898 0.6498,2.1917 0.875,3.59375 z"
       id="path4068" />
    <path
       style="fill:none;stroke:#000000;stroke-width:1.5;stroke-miterlimit:4;stroke-opacity:1;stroke-dasharray:none;display:inline"
       d="m 424.15625,146.34375 c -5.96909,-0.0908 -13.26899,0.0381 -20.34375,0.5 l 0,45.8125 0.75,0 c 0.81049,0 1.51279,0.31599 2.125,0.90625 0.61221,0.59026 1.15147,1.45274 1.5625,2.625 0.41103,1.17226 0.69929,2.66024 0.90625,4.40625 0.20696,1.74601 0.3125,3.75101 0.3125,6.0625 0,2.70775 -0.11073,4.96743 -0.34375,6.8125 -0.23302,1.84507 -0.59357,3.30003 -1.0625,4.40625 -0.46893,1.10622 -1.04227,1.85256 -1.75,2.34375 -0.70773,0.49119 -1.55057,0.71875 -2.5,0.71875 l -7.59375,0 c -0.43998,0 -0.82192,-0.16095 -1.15625,-0.4375 -0.33433,-0.27655 -0.61797,-0.67567 -0.84375,-1.1875 -0.45156,-1.02366 -0.6875,-2.47038 -0.6875,-4.1875 l 0,-9.78125 c -0.71786,3.10401 -1.49938,5.80938 -2.375,8.125 -0.87562,2.31562 -1.82715,4.24575 -2.875,5.78125 -0.52392,0.76775 -1.08656,1.42574 -1.65625,2 -0.56969,0.57426 -1.16398,1.05569 -1.78125,1.4375 -0.61727,0.38181 -1.23959,0.68461 -1.90625,0.875 -0.66666,0.19039 -1.37589,0.28125 -2.09375,0.28125 -1.22731,0 -2.3712,-0.25291 -3.4375,-0.78125 -1.0663,-0.52834 -2.03004,-1.34956 -2.9375,-2.40625 -0.90746,-1.05669 -1.74921,-2.35247 -2.5,-3.9375 -0.75079,-1.58503 -1.43496,-3.44913 -2.03125,-5.5625 -0.59629,-2.11337 -1.11854,-4.48329 -1.5625,-7.125 -0.44396,-2.64171 -0.79995,-5.5487 -1.09375,-8.71875 -0.032,-0.34565 -0.0322,-0.77307 -0.0625,-1.125 -0.88068,0.0829 -1.71926,0.28017 -2.625,0.28125 C 360.01694,194.47397 356.33342,193.6558 353,192 l 0,0.65625 0.75,0 c 0.81049,0 1.51279,0.31599 2.125,0.90625 0.61221,0.59026 1.15147,1.45274 1.5625,2.625 0.41103,1.17226 0.69929,2.66024 0.90625,4.40625 0.20696,1.74601 0.3125,3.75101 0.3125,6.0625 0,2.70775 -0.11073,4.96743 -0.34375,6.8125 -0.23302,1.84507 -0.59357,3.30003 -1.0625,4.40625 -0.46893,1.10622 -1.04227,1.85256 -1.75,2.34375 -0.70773,0.49119 -1.55057,0.71875 -2.5,0.71875 l -10.1875,0 c -0.94943,0 -1.76102,-0.22756 -2.46875,-0.71875 -0.70773,-0.49119 -1.31232,-1.23753 -1.78125,-2.34375 -0.46893,-1.10622 -0.79823,-2.56118 -1.03125,-4.40625 -0.23302,-1.84507 -0.34375,-4.10475 -0.34375,-6.8125 0,-2.31149 0.10554,-4.31649 0.3125,-6.0625 0.20696,-1.74601 0.49522,-3.23399 0.90625,-4.40625 0.41103,-1.17226 0.91904,-2.03474 1.53125,-2.625 0.61221,-0.59026 1.34576,-0.90625 2.15625,-0.90625 l 0.71875,0 -0.0937,-10 c -1.87927,-2.99457 -2.67533,-6.05913 -2.6875,-10.09375 -0.0104,-3.44312 0.77226,-5.61915 2.5625,-8.96875 l -0.125,-14.28125 c -0.38534,-0.17935 -0.6573,-0.45296 -1.0625,-0.59375 -0.74624,-0.2593 -1.88585,-0.48226 -3.09375,-0.6875 l -2.8125,24.5625 c -0.25473,2.24545 -0.55166,4.13372 -0.90625,5.71875 -0.35459,1.58503 -0.74982,2.85311 -1.21875,3.84375 -0.46893,0.99064 -0.99601,1.7252 -1.59375,2.1875 -0.59779,0.4623 -1.29028,0.65625 -2.0313,0.65625 -0.74102,0 -1.40226,-0.19395 -2,-0.65625 -0.59774,-0.4623 -1.12482,-1.19686 -1.59375,-2.1875 -0.46893,-0.99064 -0.86416,-2.25872 -1.21875,-3.84375 -0.35459,-1.58503 -0.65153,-3.4733 -0.90625,-5.71875 L 321.15625,147 c -1.33426,-0.0309 -2.49482,-0.0754 -3.96875,-0.0937 l -0.375,45.75 0.71875,0 c 0.81049,0 1.54404,0.31599 2.15625,0.90625 0.61221,0.59026 1.12022,1.45274 1.53125,2.625 0.41103,1.17226 0.69929,2.66024 0.90625,4.40625 0.20696,1.74601 0.3125,3.75101 0.3125,6.0625 0,2.70775 -0.11073,4.96743 -0.34375,6.8125 -0.23302,1.84507 -0.59357,3.30003 -1.0625,4.40625 -0.46893,1.10622 -1.04227,1.85256 -1.75,2.34375 -0.70773,0.49119 -1.51932,0.71875 -2.46875,0.71875 l -10.21875,0 c -0.94943,0 -1.76102,-0.22756 -2.46875,-0.71875 -0.70773,-0.49119 -1.31232,-1.23753 -1.78125,-2.34375 -0.46893,-1.10622 -0.79823,-2.56118 -1.03125,-4.40625 -0.23302,-1.84507 -0.34375,-4.10475 -0.34375,-6.8125 0,-2.31149 0.10554,-4.31649 0.3125,-6.0625 0.20696,-1.74601 0.49522,-3.23399 0.90625,-4.40625 0.41103,-1.17226 0.91904,-2.03474 1.53125,-2.625 0.61221,-0.59026 1.34576,-0.90625 2.15625,-0.90625 l 0.71875,0 0.625,-45.875 -9.84375,-0.0312 0,42.8125 0,42.8125 68.25,0 68.21875,0 0.34375,-2.90625 c 0.1903,-1.58431 0.371,-4.21524 0.375,-5.875 0.002,-0.68938 0.21355,-1.80126 0.28125,-2.65625 l -10.6875,0 c -0.92627,0 -1.7428,-0.23817 -2.4375,-0.75 -0.6947,-0.51183 -1.25561,-1.31477 -1.71875,-2.4375 -0.46314,-1.12273 -0.79968,-2.57356 -1.03125,-4.40625 -0.23157,-1.83269 -0.375,-4.04579 -0.375,-6.6875 0,-2.24545 0.131,-4.23513 0.34375,-5.96875 0.21275,-1.73362 0.52647,-3.18623 0.9375,-4.375 0.41103,-1.18877 0.90516,-2.10785 1.5,-2.71875 0.59484,-0.6109 1.29833,-0.9375 2.0625,-0.9375 l 0.71875,0 0,-46.3125 z"
       id="path4066" />
    <path
       style="fill:none;stroke:#000000;stroke-width:1.5;stroke-miterlimit:4;stroke-opacity:1;stroke-dasharray:none;display:inline"
       d="m 424.15625,146.34375 0,46.3125 -0.71875,0 c -0.76417,0 -1.46766,0.3266 -2.0625,0.9375 -0.59484,0.6109 -1.08897,1.52998 -1.5,2.71875 -0.41103,1.18877 -0.72475,2.64138 -0.9375,4.375 -0.21275,1.73362 -0.34375,3.7233 -0.34375,5.96875 0,2.64171 0.14343,4.85481 0.375,6.6875 0.23157,1.83269 0.56811,3.28352 1.03125,4.40625 0.46314,1.12273 1.02405,1.92567 1.71875,2.4375 0.6947,0.51183 1.51123,0.75 2.4375,0.75 l 10.6875,0 c 0.36559,-4.61737 1.42583,-10.7812 2.5,-13.21875 2.08467,-4.73065 4.36193,-7.33872 7.4375,-8.40625 -0.2252,-1.40205 -0.48867,-2.68477 -0.875,-3.59375 -0.46314,-1.08971 -1.0553,-1.85668 -1.75,-2.34375 -0.6947,-0.48707 -1.51123,-0.71875 -2.4375,-0.71875 l -4.53125,0 0,-26.40625 1.40625,0 c -1.59915,-4.1041 -2.53792,-9.16133 -2.5625,-14.875 L 434,146.90625 431.46875,146.5625 c -1.48233,-0.20318 -4.61596,-0.17772 -7.3125,-0.21875 z"
       id="path4061" />
    <path
       style="fill:none;stroke:#000000;stroke-width:1.5;stroke-miterlimit:4;stroke-opacity:1;stroke-dasharray:none;display:inline"
       d="m 367.21875,194.1875 c 0.0303,0.35193 0.0305,0.77935 0.0625,1.125 0.2938,3.17005 0.64979,6.07704 1.09375,8.71875 0.44396,2.64171 0.96621,5.01163 1.5625,7.125 0.59629,2.11337 1.28046,3.97747 2.03125,5.5625 0.75079,1.58503 1.59254,2.88081 2.5,3.9375 0.90746,1.05669 1.8712,1.87791 2.9375,2.40625 1.0663,0.52834 2.21019,0.78125 3.4375,0.78125 0.71786,0 1.42709,-0.0909 2.09375,-0.28125 0.66666,-0.19039 1.28898,-0.49319 1.90625,-0.875 0.61727,-0.38181 1.21156,-0.86324 1.78125,-1.4375 0.56969,-0.57426 1.13233,-1.23225 1.65625,-2 1.04785,-1.5355 1.99938,-3.46563 2.875,-5.78125 0.87562,-2.31562 1.65714,-5.02099 2.375,-8.125 l 0,9.78125 c 0,1.71712 0.23594,3.16384 0.6875,4.1875 0.22578,0.51183 0.50942,0.91095 0.84375,1.1875 0.33433,0.27655 0.71627,0.4375 1.15625,0.4375 l 7.59375,0 c 0.94943,0 1.79227,-0.22756 2.5,-0.71875 0.70773,-0.49119 1.28107,-1.23753 1.75,-2.34375 0.46893,-1.10622 0.82948,-2.56118 1.0625,-4.40625 0.23302,-1.84507 0.34375,-4.10475 0.34375,-6.8125 0,-2.31149 -0.10554,-4.31649 -0.3125,-6.0625 -0.20696,-1.74601 -0.49522,-3.23399 -0.90625,-4.40625 -0.41103,-1.17226 -0.95029,-2.03474 -1.5625,-2.625 -0.61221,-0.59026 -1.31451,-0.90625 -2.125,-0.90625 l -0.75,0 0,-45.8125 c -4.58227,0.29917 -8.47456,0.65072 -11.09375,1.09375 l 0,19.375 c 0,4.55695 -0.25765,8.63357 -0.6875,12.1875 -0.42985,3.55393 -1.04254,6.57115 -1.8125,9.03125 -0.38498,1.23005 -0.79681,2.34169 -1.25,3.28125 -0.45319,0.93956 -0.95858,1.70602 -1.46875,2.34375 -0.51017,0.63773 -1.03781,1.14421 -1.59375,1.46875 -0.55594,0.32454 -1.12825,0.46875 -1.71875,0.46875 -0.64839,0 -1.2443,-0.15763 -1.78125,-0.46875 -0.53695,-0.31112 -1.00331,-0.75791 -1.4375,-1.375 -0.43419,-0.61709 -0.81613,-1.39461 -1.15625,-2.3125 -0.21015,-0.56714 -0.38558,-1.28836 -0.5625,-1.96875 -3.45394,2.35861 -7.55125,3.7973 -12.03125,4.21875 z"
       id="path4006" />
    <path
       style="fill:none;stroke:#000000;stroke-width:1.5;stroke-miterlimit:4;stroke-opacity:1;stroke-dasharray:none;display:inline"
       d="m 307.21875,146.78125 -0.625,45.875 -0.71875,0 c -0.81049,0 -1.54404,0.31599 -2.15625,0.90625 -0.61221,0.59026 -1.12022,1.45274 -1.53125,2.625 -0.41103,1.17226 -0.69929,2.66024 -0.90625,4.40625 -0.20696,1.74601 -0.3125,3.75101 -0.3125,6.0625 0,2.70775 0.11073,4.96743 0.34375,6.8125 0.23302,1.84507 0.56232,3.30003 1.03125,4.40625 0.46893,1.10622 1.07352,1.85256 1.78125,2.34375 0.70773,0.49119 1.51932,0.71875 2.46875,0.71875 l 10.21875,0 c 0.94943,0 1.76102,-0.22756 2.46875,-0.71875 0.70773,-0.49119 1.28107,-1.23753 1.75,-2.34375 0.46893,-1.10622 0.82948,-2.56118 1.0625,-4.40625 0.23302,-1.84507 0.34375,-4.10475 0.34375,-6.8125 0,-2.31149 -0.10554,-4.31649 -0.3125,-6.0625 -0.20696,-1.74601 -0.49522,-3.23399 -0.90625,-4.40625 -0.41103,-1.17226 -0.91904,-2.03474 -1.53125,-2.625 -0.61221,-0.59026 -1.34576,-0.90625 -2.15625,-0.90625 l -0.71875,0 0.375,-45.75 c -2.00777,-0.025 -3.13287,-0.12294 -5.40625,-0.125 l -4.5625,0 z"
       id="path3942-4" />
    <path
       style="fill:#0066ff;fill-opacity:1;fill-rule:nonzero;stroke:#000000;stroke-width:0.58196318;stroke-miterlimit:4;stroke-opacity:1;stroke-dasharray:none"
       d=""
       id="path4239" />
    <path
       style="fill:#aaccff;fill-opacity:1;fill-rule:nonzero;stroke:#000000;stroke-width:0.20575505;stroke-miterlimit:4;stroke-opacity:1;stroke-dasharray:none"
       d="m 343.38297,158.35389 c -0.10953,-2.1477 -0.12018,-7.59145 -0.0149,-7.59145 0.23601,0 1.75837,1.18266 2.30506,1.79072 0.74771,0.83162 0.86873,1.19208 0.64781,1.92946 -0.17174,0.57321 -1.61145,3.48862 -2.38591,4.83146 l -0.46227,0.80153 -0.0898,-1.76172 z"
       id="path4243" />
    <path
       style="fill:#aaccff;fill-opacity:1;fill-rule:nonzero;stroke:#000000;stroke-width:0.20575505;stroke-miterlimit:4;stroke-opacity:1;stroke-dasharray:none"
       d="m 423.43794,220.02617 c -2.27199,-0.44859 -3.43421,-3.25404 -3.87184,-9.34613 -0.4722,-6.57342 0.28165,-13.0889 1.80498,-15.60044 0.71694,-1.18201 1.24231,-1.52332 2.49005,-1.61769 l 1.04705,-0.0792 0,-23.09335 0,-23.09335 2.2976,0.002 c 2.07299,0.002 4.03018,0.12827 5.40326,0.3482 l 0.49943,0.08 0.0883,3.11109 c 0.10133,3.57029 0.27628,5.98046 0.56936,7.84345 0.24971,1.58735 0.91191,4.54896 1.28815,5.76114 0.15221,0.49038 0.27721,0.9379 0.27779,0.99448 5.5e-4,0.0566 -0.215,0.10288 -0.47905,0.10288 l -0.4801,0 0,13.97667 0,13.97668 3.12062,0.0547 c 2.8752,0.0504 3.16515,0.078 3.68689,0.35186 0.77901,0.40886 1.63086,1.41918 1.97804,2.34604 0.29999,0.80088 0.75054,2.61823 0.66125,2.66721 -0.0279,0.0153 -0.35708,0.1821 -0.73161,0.37071 -1.584,0.79769 -3.2143,2.40218 -4.52971,4.45803 -0.74112,1.15827 -1.96134,3.63763 -2.34405,4.76286 -0.6077,1.7867 -1.64896,7.16902 -1.90475,9.84575 -0.0469,0.49038 -0.11894,1.12308 -0.16017,1.40599 l -0.075,0.51439 -5.02894,-0.015 c -2.76592,-0.008 -5.28933,-0.0664 -5.60758,-0.12928 l 0,0 z"
       id="path4251" />
    <path
       style="fill:#aaccff;fill-opacity:1;fill-rule:nonzero;stroke:#000000;stroke-width:0.20575505;stroke-miterlimit:4;stroke-opacity:1;stroke-dasharray:none"
       d="m 443.72989,164.2286 c -1.42373,-3.1841 -2.16988,-7.56758 -2.31786,-13.61681 l -0.0859,-3.51132 9.77206,-0.10049 c 5.37464,-0.0553 9.80807,-0.0645 9.85206,-0.0205 0.1115,0.1115 -0.69616,2.7274 -1.40195,4.54069 -3.18648,8.18663 -8.41489,13.16691 -14.27804,13.60041 l -1.10501,0.0817 -0.43537,-0.97368 0,0 z"
       id="path4253" />
    <path
       style="fill:#aaccff;fill-opacity:1;fill-rule:nonzero;stroke:#000000;stroke-width:0.20575505;stroke-miterlimit:4;stroke-opacity:1;stroke-dasharray:none"
       d="m 427.00002,139.00038 -2.09184,-0.0417 0,-9.7988 0,-9.7988 0.51439,-0.13427 c 1.88473,-0.49201 3.07084,-0.49373 4.02716,-0.006 0.70787,0.36113 1.82763,1.67466 2.39065,2.80437 0.61569,1.23536 0.84899,2.37927 1.02112,5.0067 0.12201,1.8623 0.41039,9.88239 0.41308,11.48799 l 9.7e-4,0.58297 -2.09184,-0.0304 c -1.15051,-0.0167 -3.03317,-0.0492 -4.18369,-0.0722 l 0,0 z"
       id="path4255" />
    <path
       style="fill:#aaccff;fill-opacity:1;fill-rule:nonzero;stroke:#000000;stroke-width:0.20575505;stroke-miterlimit:4;stroke-opacity:1;stroke-dasharray:none"
       d="m 441.36859,138.64224 0,-0.63662 0.57173,0 c 1.62035,0 3.39933,-0.56979 4.90578,-1.57127 2.50712,-1.66673 4.25635,-4.6593 5.29017,-9.05038 1.24129,-5.27226 1.32553,-13.87785 0.19144,-19.55575 -1.31281,-6.57272 -4.54246,-10.367296 -9.33531,-10.96827 -0.62509,-0.07838 -2.81968,-0.142507 -4.87688,-0.142507 l -3.74036,0 -0.0354,7.803447 -0.0354,7.80345 -0.85314,-0.51588 c -0.46923,-0.28373 -1.39513,-0.69353 -2.05755,-0.91065 -1.08595,-0.35595 -1.38654,-0.39478 -3.05621,-0.39478 -1.01848,0 -2.20672,0.0468 -2.64052,0.10408 l -0.78873,0.10407 0,-7.54555 0,-7.545547 -0.967,0 c -0.58073,0 -1.12213,-0.08022 -1.35536,-0.200828 -1.18994,-0.615339 -2.12188,-2.767255 -2.67535,-6.177579 -0.20617,-1.270319 -0.48485,-5.006706 -0.37343,-5.006706 0.027,0 0.6537,0.339379 1.39275,0.754177 3.90185,2.189947 6.90975,3.055368 9.33627,2.686189 2.92802,-0.445478 5.98661,-2.167611 8.75872,-4.931575 2.7388,-2.730753 4.15364,-5.343507 4.68462,-8.650998 0.13054,-0.813114 0.53078,-4.489196 0.53705,-4.932536 0.004,-0.28696 1.84725,-0.108222 3.33273,0.32318 4.24374,1.232432 7.95248,4.581388 10.57684,9.550764 2.92265,5.534223 4.90274,13.652063 5.76871,23.650169 0.67312,7.77157 0.67294,18.69538 -4.1e-4,27.0225 -0.22897,2.83135 -0.77534,7.39786 -1.0195,8.52079 l -0.15265,0.7021 -2.08435,0.0849 c -1.14639,0.0467 -5.95768,0.12524 -10.69176,0.17456 l -8.60742,0.0897 0,-0.63662 -5e-5,0 z"
       id="path4259" />
    <path
       style="fill:#aaccff;fill-opacity:1;fill-rule:nonzero;stroke:#000000;stroke-width:0.20575505;stroke-miterlimit:4;stroke-opacity:1;stroke-dasharray:none"
       d="m 428.1988,79.368779 c -0.75091,-0.268219 -2.05955,-0.954711 -4.59245,-2.40913 -1.28325,-0.736854 -2.62638,-1.481486 -2.98473,-1.654737 -0.36644,-0.177156 -0.65026,-0.408086 -0.64859,-0.527716 0.002,-0.116993 0.12047,-0.74399 0.26408,-1.393327 0.47962,-2.168645 1.35657,-3.651023 2.53195,-4.279977 0.55127,-0.29499 0.67938,-0.301327 6.92266,-0.342441 l 6.361,-0.04189 -0.0993,1.345005 c -0.16793,2.275769 -0.42118,3.522143 -0.89708,4.415024 -0.96576,1.811947 -2.77154,3.563154 -4.59282,4.454009 -1.16511,0.569898 -1.63489,0.660168 -2.26477,0.43518 z"
       id="path4261" />
    <path
       style="fill:#aaccff;fill-opacity:1;fill-rule:nonzero;stroke:#000000;stroke-width:0.20575505;stroke-miterlimit:4;stroke-opacity:1;stroke-dasharray:none"
       d="m 482.0395,95.36417 c -0.62457,-0.284453 -1.43896,-1.129581 -1.83325,-1.902463 -1.87453,-3.674373 -2.05995,-16.940275 -0.30182,-21.592964 0.40835,-1.08067 1.07977,-1.902704 1.94588,-2.382394 l 0.73787,-0.408668 14.40286,0 c 14.37674,0 14.40399,5.26e-4 15.03027,0.29024 1.23007,0.569028 2.06449,1.846236 2.59163,3.966915 0.46847,1.884629 0.57399,3.155698 0.64869,7.813808 0.0822,5.127537 -0.11909,7.973488 -0.72391,10.23349 -0.18772,0.701472 -0.35749,1.291575 -0.37725,1.31134 -0.0198,0.01976 -0.37256,-0.05532 -0.78399,-0.166842 -2.64358,-0.716592 -7.13814,-1.05945 -9.93845,-0.758132 -3.78759,0.407549 -7.30374,1.493268 -10.23679,3.160915 l -1.21475,0.690668 -4.69915,-0.003 c -4.24971,-0.0027 -4.75164,-0.02691 -5.24784,-0.252901 z"
       id="path4263" />
    <path
       style="fill:#aaccff;fill-opacity:1;fill-rule:nonzero;stroke:#000000;stroke-width:0.58196318;stroke-miterlimit:4;stroke-opacity:1;stroke-dasharray:none"
       d="m 547.19705,139.33692 c -2.95534,-0.13485 -9.89631,-0.85716 -11.15429,-1.16076 l -0.87295,-0.21068 0,-21.29659 0,-21.296588 -1.29778,0 c -0.78359,0 -1.56286,-0.292903 -1.96681,-0.739262 -1.73152,-1.913313 -2.74178,-9.648621 -2.17342,-16.641399 0.35953,-4.423484 1.01677,-6.629383 2.42036,-8.12343 l 0.82506,-0.87824 19.71912,0 c 18.98125,0 19.74721,0.02809 20.46988,0.750759 1.47683,1.476837 1.64187,3.228852 1.84792,19.617952 0.2007,15.963528 -0.21472,27.838408 -1.08893,31.127138 -0.54932,2.06653 -2.00179,3.69176 -3.1511,3.5259 -1.24138,-0.17915 -2.47742,-2.27926 -2.98067,-5.0643 -0.24154,-1.33675 -0.55034,-7.44989 -0.68622,-13.58475 l -0.24705,-11.154294 -11.38346,0 -11.38346,0 0,17.458894 0,17.4589 4.79565,0 4.79565,0 0.24466,-2.03687 c 0.13456,-1.12028 0.25044,-3.1717 0.25751,-4.55872 0.0145,-2.84964 0.48533,-5.33626 1.41241,-7.45984 1.06374,-2.4366 3.07248,-2.4366 4.16157,0 1.09731,2.45501 1.39889,5.75147 1.40122,15.31635 l 0.002,9.21441 -5.72264,-0.0747 c -3.14745,-0.0411 -6.85747,-0.12654 -8.24448,-0.18983 z"
       id="path4269" />
    <path
       style="fill:#aaccff;fill-opacity:1;fill-rule:nonzero;stroke:#000000;stroke-width:0.1454908;stroke-miterlimit:4;stroke-opacity:1;stroke-dasharray:none"
       d="m 351.12804,181.30369 c -2.47155,-2.77069 -3.64672,-5.26793 -3.82709,-8.13261 -0.14713,-2.33688 0.45353,-3.99779 3.01942,-8.3491 0.72105,-1.22278 1.35199,-2.30078 1.40208,-2.39556 0.058,-0.10969 0.13449,3.44756 0.2105,9.7848 0.0657,5.47643 0.10123,9.97534 0.079,9.99758 -0.0222,0.0222 -0.41999,-0.38506 -0.8839,-0.90511 z"
       id="path4271" />
    <path
       style="fill:#aaccff;fill-opacity:1;fill-rule:nonzero;stroke:#000000;stroke-width:0.1454908;stroke-miterlimit:4;stroke-opacity:1;stroke-dasharray:none"
       d="m 342.06781,220.06009 c -1.75247,-0.34441 -2.85051,-1.90362 -3.44415,-4.89067 -0.79275,-3.98887 -0.82448,-11.99327 -0.0642,-16.20436 0.55823,-3.09218 1.49814,-4.86534 2.84723,-5.37135 0.15017,-0.0563 0.71335,-0.10242 1.2515,-0.10242 l 0.97846,0 -0.0542,-4.14577 c -0.0542,-4.14457 -0.0541,-4.14571 0.13794,-3.90401 2.02281,2.54561 4.88597,5.00734 7.71884,6.6366 l 0.8002,0.46022 0,0.47648 0,0.47648 0.99418,0.002 c 1.22004,0.003 1.58238,0.14449 2.24846,0.8804 0.82975,0.91673 1.4673,2.57395 1.8434,4.79162 0.73685,4.34485 0.6601,12.60239 -0.15009,16.14947 -0.70314,3.0784 -1.73152,4.45881 -3.54269,4.75542 -0.70142,0.11487 -10.97452,0.10577 -11.56484,-0.0102 l 0,0 z"
       id="path4273" />
    <path
       style="fill:#aaccff;fill-opacity:1;fill-rule:nonzero;stroke:#000000;stroke-width:0.1454908;stroke-miterlimit:4;stroke-opacity:1;stroke-dasharray:none"
       d="m 305.90526,220.06399 c -1.43173,-0.24084 -2.49637,-1.38652 -3.10621,-3.34266 -0.53847,-1.72723 -0.80687,-3.71969 -0.95221,-7.06877 -0.16565,-3.81727 0.0338,-8.15072 0.49181,-10.6875 0.52138,-2.88754 1.45372,-4.7404 2.66127,-5.2888 0.30392,-0.13802 0.63275,-0.18121 1.3921,-0.18284 l 0.99419,-0.002 7.9e-4,-0.46072 c 4.3e-4,-0.25339 0.13102,-9.84487 0.29019,-21.3144 0.15917,-11.46952 0.28975,-21.58806 0.29019,-22.48564 l 7.9e-4,-1.63197 4.16275,0.0316 c 2.28951,0.0174 4.18367,0.0534 4.20924,0.0801 0.0256,0.0267 -0.0347,9.49813 -0.13393,21.04767 -0.0992,11.54954 -0.18204,21.83938 -0.184,22.8663 l -0.004,1.86713 0.96362,0 c 0.53,0 1.0865,0.0461 1.23668,0.10242 1.70128,0.63812 2.75882,3.29726 3.18023,7.99657 0.40442,4.50997 0.22515,10.63275 -0.39618,13.53065 -0.67797,3.16204 -1.75685,4.64901 -3.59109,4.9494 -0.68091,0.11151 -10.83933,0.10591 -11.50666,-0.006 l 0,0 z"
       id="path4279" />
    <path
       style="fill:#aaccff;fill-opacity:1;fill-rule:nonzero;stroke:#000000;stroke-width:0.1454908;stroke-miterlimit:4;stroke-opacity:1;stroke-dasharray:none"
       d="m 328.9803,184.07992 c -1.82307,-0.54614 -3.14973,-3.98372 -3.98546,-10.32688 -0.13355,-1.01358 -0.83232,-7.1242 -1.55283,-13.57914 -0.72052,-6.45494 -1.33516,-11.88195 -1.36587,-12.06002 l -0.0559,-0.32376 2.64908,0.0602 c 1.45699,0.0331 2.8694,0.0827 3.13868,0.11005 l 0.4896,0.0498 0.4094,3.4145 c 0.22518,1.87798 0.40859,3.46907 0.4076,3.53575 -10e-4,0.0876 0.22677,0.12124 0.82263,0.12124 0.72854,0 0.82445,-0.0203 0.82445,-0.17418 0,-0.23625 0.77808,-6.74684 0.81015,-6.77891 0.0681,-0.0681 5.78395,0.50302 5.84608,0.58413 0.0202,0.0264 -2.74642,24.07551 -2.91973,25.37976 -0.59867,4.5055 -1.6061,7.82657 -2.77732,9.15566 -0.70466,0.79964 -1.76926,1.12273 -2.74061,0.83174 l 0,0 z"
       id="path4281" />
    <path
       style="fill:#aaccff;fill-opacity:1;fill-rule:nonzero;stroke:#000000;stroke-width:0.1454908;stroke-miterlimit:4;stroke-opacity:1;stroke-dasharray:none"
       d="m 379.91076,222.967 c -4.78584,-0.62803 -8.27529,-6.35402 -10.33763,-16.9635 -0.60187,-3.09628 -1.46877,-9.46086 -1.46877,-10.78347 l 0,-0.32558 1.13319,-0.17481 c 2.96303,-0.4571 6.1203,-1.55114 8.83054,-3.05991 l 0.7008,-0.39014 0.13581,0.45733 c 0.20812,0.7008 0.70697,1.82608 1.10049,2.48243 0.5354,0.89298 1.04378,1.46165 1.69617,1.89729 1.35085,0.90207 2.93557,1.02595 4.327,0.33827 1.14119,-0.56401 2.30947,-1.83892 3.28428,-3.58408 1.6459,-2.94654 2.96522,-8.166 3.61626,-14.30659 0.51412,-4.84905 0.58754,-7.26202 0.58771,-19.31252 l 1.5e-4,-10.63156 0.50921,-0.0625 c 2.62143,-0.3219 5.2664,-0.57904 8.14749,-0.79209 l 0.8487,-0.0628 0,22.89926 0,22.89925 0.97305,0 c 1.36791,0 1.78119,0.1949 2.57148,1.21263 1.4713,1.89474 2.16326,6.34593 2.05061,13.19096 -0.0739,4.48942 -0.30573,6.53993 -0.98703,8.72945 -0.55819,1.79387 -1.32287,2.81224 -2.45287,3.26663 -0.54544,0.21933 -0.62719,0.22358 -4.82258,0.25116 -4.14295,0.0272 -4.277,0.0223 -4.58496,-0.16852 -0.74292,-0.46031 -1.22262,-1.781 -1.37942,-3.79776 -0.0513,-0.66022 -0.0943,-3.36928 -0.0955,-6.02012 -10e-4,-2.65085 -0.0349,-4.83849 -0.075,-4.86141 -0.04,-0.0229 -0.38186,-0.0711 -0.75967,-0.10699 l -0.68692,-0.0653 -0.46682,1.8229 c -1.20755,4.71538 -2.63197,8.4741 -4.1605,10.97857 -2.29041,3.75281 -5.07507,5.45821 -8.23529,5.04351 z"
       id="path4283" />
    <path
       style="fill:#aaccff;fill-opacity:1;fill-rule:nonzero;stroke:#000000;stroke-width:0.1454908;stroke-miterlimit:4;stroke-opacity:1;stroke-dasharray:none"
       d="m 367.47968,185.80036 c -0.19566,-2.90276 -0.24745,-9.53678 -0.24783,-31.75059 l -4.3e-4,-24.74695 -1.04268,-0.0398 c -0.82146,-0.0313 -1.12641,-0.0836 -1.43728,-0.24619 -1.23605,-0.64664 -2.18284,-2.69697 -2.69957,-5.84613 -0.71715,-4.37055 -0.60028,-12.56153 0.22914,-16.05875 0.54767,-2.30925 1.35692,-3.61198 2.60819,-4.19861 l 0.54781,-0.25684 4.84351,-0.0285 c 3.45266,-0.0203 4.91985,0.003 5.10936,0.0816 0.2831,0.11727 0.68375,0.63245 0.8628,1.10945 0.44477,1.18487 0.42401,0.15894 0.45701,22.58312 l 0.031,21.02978 -0.52932,0.79553 c -1.1153,1.67619 -1.45723,2.76548 -1.45129,4.6234 0.006,1.80861 0.36808,3.25939 1.51386,6.06211 l 0.43618,1.06693 0.0564,7.75951 c 0.0554,7.62143 0.15572,10.95036 0.3955,13.11917 l 0.12072,1.09193 -0.73365,0.70963 c -2.22851,2.15553 -4.71962,3.38793 -7.76571,3.84187 -0.4001,0.0596 -0.84355,0.12707 -0.98545,0.14988 l -0.25799,0.0415 -0.0602,-0.89302 0,0 z"
       id="path4285" />
    <path
       style="fill:#aaccff;fill-opacity:1;fill-rule:nonzero;stroke:#000000;stroke-width:0.41151011;stroke-miterlimit:4;stroke-opacity:1;stroke-dasharray:none"
       d="m 481.84018,219.50454 c -1.61828,-0.98672 -2.80844,-4.49133 -2.81829,-8.29888 -0.004,-1.59672 0.0724,-1.88345 0.57475,-2.15228 0.87954,-0.47072 3.80562,-3.22758 5.07379,-4.78037 2.38865,-2.92476 4.10794,-6.25883 4.78299,-9.27527 l 0.35028,-1.56525 1.19088,0 1.19087,0 0,-25.69608 0,-25.69608 1.64527,-1.71337 c 1.99106,-2.07349 2.76661,-3.72998 2.94706,-6.29458 0.19124,-2.71795 -0.42269,-4.80599 -2.68351,-9.12689 l -1.90882,-3.64813 0,-7.10536 0,-7.10536 1.56297,-1.68819 c 2.18897,-2.36435 5.16608,-4.2796 7.42277,-4.77525 l 0.8905,-0.19559 0,46.4953 0,46.49529 4.74489,0.0957 c 5.36262,0.1082 5.80577,0.24874 6.77504,2.14866 0.93563,1.83399 1.37145,4.34289 1.54959,8.92068 0.32148,8.26079 -0.747,13.5884 -3.00084,14.96264 -0.84136,0.51301 -1.47797,0.53552 -15.14397,0.53552 -13.67843,0 -14.30193,-0.0221 -15.14622,-0.53689 l 0,0 z"
       id="path4287" />
    <path
       style="fill:#aaccff;fill-opacity:1;fill-rule:nonzero;stroke:#000000;stroke-width:0.1454908;stroke-miterlimit:4;stroke-opacity:1;stroke-dasharray:none"
       d="m 323.7619,140.12389 c -1.36928,-0.0299 -2.51145,-0.0762 -2.53815,-0.10295 -0.0385,-0.0386 -2.97586,-25.83138 -2.97457,-26.11938 1.9e-4,-0.0422 -0.35975,-0.064 -0.79986,-0.0485 l -0.8002,0.0282 -0.0716,9.79638 c -0.0394,5.38801 -0.099,11.24765 -0.13247,13.02142 l -0.0608,3.22505 -4.11101,0 -4.11101,0 -2.2e-4,-1.67315 c -2.6e-4,-2.023 0.45359,-36.76509 0.52457,-40.155455 l 0.0503,-2.400598 -0.99051,-9.7e-4 c -1.1758,-0.0011 -1.73913,-0.208047 -2.31979,-0.852173 -0.81229,-0.901081 -1.53661,-2.865508 -1.92065,-5.208973 -0.63046,-3.847153 -0.69704,-10.644802 -0.14116,-14.41193 0.524,-3.551067 1.55176,-5.545247 3.19955,-6.208175 l 0.57951,-0.233146 4.17074,-2.15e-4 c 4.11732,-2.12e-4 4.17635,0.0026 4.60916,0.21588 1.82625,0.900142 3.11779,4.371064 4.07013,10.938199 0.15472,1.066933 1.85495,14.946755 3.77828,30.844046 1.92333,15.8973 3.51791,29.0242 3.54351,29.17091 l 0.0466,0.26673 -0.55529,-0.0184 c -0.30541,-0.0101 -1.67561,-0.0429 -3.0449,-0.0728 l 0,0 z"
       id="path4297" />
    <path
       style="fill:#aaccff;fill-opacity:1;fill-rule:nonzero;stroke:#000000;stroke-width:0.1454908;stroke-miterlimit:4;stroke-opacity:1;stroke-dasharray:none"
       d="m 350.98495,145.96469 c -1.74034,-1.59796 -4.23571,-3.02486 -6.86004,-3.92269 l -0.92467,-0.31635 -0.0654,-9.3635 c -0.036,-5.14992 -0.0958,-11.41491 -0.13289,-13.9222 l -0.0675,-4.55871 -0.77303,0 -0.77303,0 -1.51144,13.26094 c -0.8313,7.29352 -1.53097,13.27963 -1.55483,13.30248 -0.0718,0.0687 -5.70515,-0.0879 -5.77788,-0.16063 -0.0754,-0.0754 6.48112,-55.994995 7.00258,-59.724302 0.82754,-5.918329 1.7972,-9.211416 3.18862,-10.829036 0.19222,-0.223472 0.59934,-0.529003 0.90471,-0.678957 l 0.55522,-0.272645 3.58644,-0.03081 c 4.90046,-0.04209 5.44882,0.0483 6.4475,1.062865 1.13458,1.152616 1.80749,3.229086 2.20125,6.792636 0.23336,2.111866 0.23799,8.409352 0.008,10.60414 -0.43705,4.167085 -1.15511,6.483531 -2.39374,7.722165 -0.65742,0.657416 -0.96433,0.763505 -2.21098,0.764257 l -0.89719,5.41e-4 0.006,1.867132 c 0.003,1.026922 0.14831,12.451594 0.32215,25.388144 0.17384,12.93656 0.31295,23.52728 0.30915,23.53495 -0.004,0.008 -0.2688,-0.22653 -0.58888,-0.52042 l 0,0 z"
       id="path4299" />
    <path
       style="fill:#aaccff;fill-opacity:1;fill-rule:nonzero;stroke:#000000;stroke-width:0.1454908;stroke-miterlimit:4;stroke-opacity:1;stroke-dasharray:none"
       d="m 393.51676,134.93544 0,-5.68068 -0.8972,-5.8e-4 c -1.18608,-6.8e-4 -1.51313,-0.10582 -2.15517,-0.69261 -1.21039,-1.10618 -2.05911,-3.69391 -2.4926,-7.59978 -0.17466,-1.57381 -0.17671,-8.66064 -0.003,-10.32985 0.16368,-1.57262 0.46398,-3.38918 0.68064,-4.11725 l 0.1717,-0.57697 0.46047,1.40142 c 1.07057,3.25819 2.58268,5.61761 5.39794,8.42268 2.42697,2.41818 5.63901,4.67446 7.93038,5.57064 l 0.41223,0.16122 0,9.01424 0,9.01424 -0.50922,0.0551 c -0.28007,0.0303 -1.27305,0.12161 -2.20661,0.20284 -1.74795,0.1521 -6.31817,0.69393 -6.61983,0.78483 -0.16031,0.0483 -0.16974,-0.26454 -0.16974,-5.62953 z"
       id="path4301" />
    <path
       style="fill:#aaccff;fill-opacity:1;fill-rule:nonzero;stroke:#000000;stroke-width:0.1454908;stroke-miterlimit:4;stroke-opacity:1;stroke-dasharray:none"
       d="m 402.2462,111.68049 c -1.39052,-1.0957 -3.06084,-3.0535 -4.15844,-4.87417 -0.73103,-1.21262 -1.12578,-2.12485 -1.56589,-3.61866 l -0.1786,-0.60621 2.54915,0 c 2.96176,0 2.97152,0.003 3.46442,0.97886 0.51964,1.02902 0.58544,1.57169 0.63698,5.253 0.0259,1.85379 0.0102,3.36906 -0.035,3.36725 -0.0452,-0.002 -0.36587,-0.22684 -0.71263,-0.50007 z"
       id="path4303" />
    <path
       style="fill:#aaccff;fill-opacity:1;fill-rule:nonzero;stroke:#000000;stroke-width:0.58196318;stroke-miterlimit:4;stroke-opacity:1;stroke-dasharray:none"
       d="m 532.24882,219.0763 c -2.01446,-1.69506 -2.55131,-4.28003 -2.53115,-12.18765 0.0133,-5.20371 0.16974,-7.29635 0.66991,-8.95929 0.86612,-2.87958 1.95592,-4.23187 3.41046,-4.23187 l 1.13577,0 0,-23.69733 0,-23.69733 1.06693,0.22599 c 2.64235,0.55969 9.10668,1.04425 16.87694,1.26507 l 8.43846,0.23981 0,5.86815 c 0,11.65044 -1.40941,16.84234 -4.32122,15.91817 -1.73605,-0.551 -3.02503,-6.08957 -3.04342,-13.0772 l -0.007,-2.61883 -4.8497,0 -4.84969,0 0,19.78675 0,19.78675 2.15937,0 c 1.18766,0 2.5135,0.18952 2.94631,0.42115 2.18652,1.17019 3.44167,9.07385 2.6853,16.90931 -0.4911,5.08746 -1.46013,7.73348 -3.13527,8.56118 -0.66365,0.32791 -3.25773,0.48105 -8.21471,0.48497 -7.23013,0.006 -7.24719,0.004 -8.4374,-0.9978 z"
       id="path4305" />
  </g>
  <g
     id="layer6"
     style="display:none"
     transform="translate(-294.625,-57.875)">
    <path
       style="opacity:0.37448563;fill:none;stroke:#000000;stroke-width:1.25;stroke-miterlimit:4;stroke-opacity:1;stroke-dasharray:none;display:inline"
       d="m 331.97775,206.50188 c -10.99742,0.0527 -8.60344,-0.89903 -23.39448,-0.47308 -14.79104,0.42592 -33.20812,0.86251 -36.21596,8.19456 -2.28586,5.57213 6.32859,13.40815 6.49241,19.4287 0.23967,8.80779 -2.1872,11.48088 -6.12967,15.31318 -3.86816,3.76007 -9.56061,5.62799 -15.18894,5.58601 -5.62833,-0.042 -10.98786,-2.00269 -14.8123,-5.64933 -3.80287,-3.62607 -6.4769,-7.22032 -6.31177,-14.44484 0.15615,-6.83139 10.10092,-14.49931 7.2359,-19.87 -4.76863,-8.93915 -19.53758,-7.71418 -34.18152,-7.73732 l -19.62222,-0.031"
       id="path3114-20" />
    <path
       style="opacity:0.37448563;fill:none;stroke:#000000;stroke-width:1.25;stroke-miterlimit:4;stroke-opacity:1;stroke-dasharray:none;display:inline"
       d="m 474.05378,206.59808 c -10.99742,-0.0527 -8.60344,0.89903 -23.39448,0.47308 -14.79104,-0.42592 -33.20812,-0.86251 -36.21596,-8.19456 -2.28586,-5.57213 6.32859,-13.40814 6.49241,-19.42869 0.23967,-8.80779 -2.1872,-11.48088 -6.12967,-15.31318 -3.86816,-3.76007 -9.56061,-5.62799 -15.18894,-5.58601 -5.62834,0.042 -10.98787,2.00269 -14.81231,5.64933 -3.80287,3.62607 -6.4769,7.22032 -6.31177,14.44484 0.15615,6.83139 10.10092,14.4993 7.2359,19.86999 -4.76863,8.93915 -19.53758,7.71418 -34.18152,7.73732 l -19.62221,0.031"
       id="path3114-4-6" />
    <path
       style="opacity:0.37448563;fill:none;stroke:#000000;stroke-width:1.25;stroke-miterlimit:4;stroke-opacity:1;stroke-dasharray:none;display:inline"
       d="m 330.67909,295.40158 c 0.42592,-14.79104 1.41119,-27.17264 8.74324,-30.18048 5.57213,-2.28586 13.40814,6.32859 19.42869,6.49241 8.80779,0.23967 11.48088,-2.1872 15.31318,-6.12967 3.76007,-3.86816 5.62799,-9.56061 5.58601,-15.18894 -0.042,-5.62834 -2.00269,-10.98787 -5.64933,-14.81231 -3.62607,-3.80287 -7.22032,-6.4769 -14.44484,-6.31177 -6.83139,0.15615 -14.4993,10.10092 -19.86999,7.2359 -8.93915,-4.76863 -9.36022,-15.69683 -9.38336,-30.34077"
       id="path3114-4-7-3" />
    <path
       style="opacity:0.37448563;fill:none;stroke:#000000;stroke-width:1.25;stroke-miterlimit:4;stroke-opacity:1;stroke-dasharray:none;display:inline"
       d="m 330.54814,206.23005 c -0.82322,-14.39887 2.23752,-22.41106 -5.52676,-27.78699 -5.39624,-3.73632 -13.40814,3.03651 -19.42869,3.20033 -8.80779,0.23967 -11.48088,-2.1872 -15.31318,-6.12967 -3.76006,-3.86816 -5.62798,-9.56061 -5.586,-15.18894 0.042,-5.62834 2.00269,-10.98787 5.64932,-14.81231 3.62607,-3.80287 7.22032,-6.4769 14.44484,-6.31177 6.83139,0.15615 14.4993,10.10092 19.86999,7.2359 8.93915,-4.76863 9.29861,-9.11288 9.38336,-23.75659"
       id="path3114-4-7-0-7" />
  </g>
  <g
     style="opacity:0.81102361;display:none"
     id="g4038"
     transform="translate(-294.625,-57.875)">
    <flowRoot
       style="font-style:italic;font-variant:normal;font-weight:bold;font-stretch:normal;line-height:0.01%;font-family:'URW Chancery L';-inkscape-font-specification:'URW Chancery L Bold Italic';letter-spacing:0px;word-spacing:0px;fill:#000000;fill-opacity:1;stroke:none"
       id="flowRoot4040"
       xml:space="preserve"><flowRegion
         id="flowRegion4042"><rect
           y="81.50457"
           x="90.509666"
           height="155.56349"
           width="267.28638"
           id="rect4044" /></flowRegion><flowPara
         id="flowPara4046"
         style="font-size:40px;line-height:1.25"></flowPara></flowRoot>
    <g
       id="g4048"
       style="font-size:62.57089615px;font-style:italic;font-variant:normal;font-weight:bold;font-stretch:normal;line-height:125%;letter-spacing:0px;word-spacing:0px;fill:#0000aa;fill-opacity:1;stroke:none;font-family:URW Chancery L;-inkscape-font-specification:URW Chancery L Bold Italic"
       transform="scale(0.59214331,1.6887804)">
      <path
         id="path4050"
         style="font-size:156.42723083px;font-style:normal;fill:#0044aa;font-family:Courier 10 Pitch;-inkscape-font-specification:Courier 10 Pitch Bold"
         d="M 571.76129,48.388243 557.21356,91.718586 542.19654,48.388243 c -2.03355,-5.787802 -5.00567,-8.134216 -10.32419,-8.134216 l -11.88847,0 c -6.56994,0 -9.69849,2.189988 -9.69849,8.44707 0,5.474948 2.97212,8.447071 8.44707,8.447071 0.46928,0 0.78214,0 1.25142,0 l -2.18998,56.939512 c -0.46929,0 -0.93857,0 -1.25142,0 -5.47495,0 -8.29065,2.8157 -8.29065,8.29064 0,6.41351 3.12856,8.44707 9.54207,8.44707 l 17.20699,0 c 6.41351,0 9.54206,-2.03356 9.54206,-8.44707 0,-5.47494 -2.81569,-8.29064 -8.29064,-8.29064 -0.31286,0 -0.78214,0 -1.25142,0 l 1.09499,-46.615315 11.10634,34.726845 c 1.72069,5.31852 4.69282,7.35208 9.69848,7.35208 5.00567,0 7.97779,-2.03356 9.69849,-7.35208 l 11.26276,-34.726845 1.09499,46.615315 c -0.46928,0 -0.93856,0 -1.25141,0 -5.47495,0 -8.29065,2.8157 -8.29065,8.29064 0,6.41351 3.12855,8.44707 9.54206,8.44707 l 17.207,0 c 6.41351,0 9.54206,-2.03356 9.54206,-8.44707 0,-5.47494 -2.8157,-8.29064 -8.29064,-8.29064 -0.31286,0 -0.78214,0 -1.25142,0 l -2.18998,-56.939512 c 0.46928,0 0.78213,0 1.25141,0 5.47495,0 8.44708,-2.972123 8.44708,-8.447071 0,-6.257082 -3.12856,-8.44707 -9.69849,-8.44707 l -11.88847,0 c -5.31852,0 -8.29065,2.346414 -10.3242,8.134216" />
      <path
         id="path4052"
         style="font-size:156.42723083px;font-style:normal;fill:#0044aa;font-family:Courier 10 Pitch;-inkscape-font-specification:Courier 10 Pitch Bold"
         d="m 681.97405,114.08768 0,-50.525996 c 0,-2.033552 -1.56428,-3.284971 -4.37996,-3.284971 l -14.39131,0 c -6.41351,0 -9.69849,1.877133 -9.69849,8.290643 0,5.474947 2.97213,8.44707 8.44707,8.44707 0.46928,0 0.78214,0 1.25142,0 l 0,22.05624 c 0,10.793464 -6.41352,17.050564 -14.3913,17.050564 -8.75992,0 -11.26276,-5.94424 -11.26276,-17.050564 l 0,-35.508982 c 0,-2.033552 -1.40785,-3.284971 -4.22354,-3.284971 l -14.39131,0 c -6.41351,0 -9.69848,1.877133 -9.69848,8.290643 0,5.474947 2.81569,8.44707 8.29064,8.44707 0.46928,0 0.78214,0 1.25142,0 l 0,25.497634 c 0,20.02267 7.82138,30.03403 24.40265,30.03403 9.69847,0 16.58129,-3.59783 21.43053,-10.9499 l 0,5.7878 c 0,2.03356 1.56427,3.4414 4.53639,3.4414 l 12.82703,0 c 6.41351,0 9.54206,-2.03356 9.54206,-8.44707 0,-5.47494 -2.8157,-8.29064 -8.29064,-8.29064 -0.31286,0 -0.78214,0 -1.25142,0" />
      <path
         id="path4056"
         style="font-size:156.42723083px;font-style:normal;fill:#0044aa;font-family:Courier 10 Pitch;-inkscape-font-specification:Courier 10 Pitch Bold"
         d="m 862.04133,40.410454 -45.3639,0 c -6.41351,0 -9.69849,1.877133 -9.69849,8.290643 0,6.413511 3.28498,8.447071 9.69849,8.447071 l 12.82703,0 0,56.939512 -12.82703,0 c -6.41351,0 -9.69849,1.87713 -9.69849,8.29064 0,6.41351 3.28498,8.44707 9.69849,8.44707 l 45.3639,0 c 6.56993,0 9.54206,-2.50284 9.54206,-8.44707 0,-6.41351 -3.12855,-8.29064 -9.54206,-8.29064 l -12.82704,0 0,-56.939512 12.82704,0 c 6.41351,0 9.69848,-2.03356 9.69848,-8.447071 0,-6.569937 -3.28497,-8.290643 -9.69848,-8.290643" />
      <path
         id="path4058"
         style="font-size:156.42723083px;font-style:normal;fill:#0044aa;font-family:Courier 10 Pitch;-inkscape-font-specification:Courier 10 Pitch Bold"
         d="m 964.58916,40.254027 -62.57089,0 c -6.25708,0 -9.38563,2.346415 -9.38563,8.44707 0,5.474948 2.97212,8.447071 8.29064,8.447071 0.31286,0 0.78214,0 1.09499,0 l 0,56.939512 c -0.46928,0 -0.78213,0 -1.25142,0 -5.16209,0 -8.13421,2.97212 -8.13421,8.29064 0,6.25709 3.12855,8.44707 9.38563,8.44707 l 22.83838,0 c 6.25708,0 9.38563,-2.18998 9.38563,-8.44707 0,-6.25708 -3.12855,-8.29064 -9.38563,-8.29064 l -4.22354,0 0,-22.369094 13.29632,0 c 0,0.469281 0,0.938564 0,1.407845 0,5.474948 2.65927,8.134219 7.82136,8.134219 5.7878,0 7.82136,-3.128554 7.82136,-9.542064 l 0,-15.79915 c 0,-6.41351 -2.03356,-9.542061 -7.82136,-9.542061 -5.16209,0 -7.82136,2.815696 -7.82136,8.603497 0,0.312854 0,0.62571 0,0.938564 l -13.29632,0 0,-19.553404 35.50898,0 0,7.977789 c 0,6.41351 1.87714,9.698488 8.13422,9.698488 6.10066,0 8.29064,-3.128551 8.29064,-9.698488 l 0,-17.050569 c 0,-5.474947 -1.56428,-7.039225 -7.97779,-7.039225" />
    </g>
  </g>
  <g
     id="g4119"
     style="opacity:0.81102361;display:none"
     transform="translate(-294.625,-57.875)">
    <flowRoot
       xml:space="preserve"
       id="flowRoot4121"
       style="font-style:italic;font-variant:normal;font-weight:bold;font-stretch:normal;line-height:0.01%;font-family:'URW Chancery L';-inkscape-font-specification:'URW Chancery L Bold Italic';letter-spacing:0px;word-spacing:0px;fill:#000000;fill-opacity:1;stroke:none"><flowRegion
         id="flowRegion4123"><rect
           id="rect4125"
           width="267.28638"
           height="155.56349"
           x="90.509666"
           y="81.50457" /></flowRegion><flowPara
         id="flowPara4127"
         style="font-size:40px;line-height:1.25"></flowPara></flowRoot>
    <g
       transform="scale(0.59214331,1.6887804)"
       style="font-size:62.57089615px;font-style:italic;font-variant:normal;font-weight:bold;font-stretch:normal;line-height:125%;letter-spacing:0px;word-spacing:0px;fill:#0000aa;fill-opacity:1;stroke:none;font-family:URW Chancery L;-inkscape-font-specification:URW Chancery L Bold Italic"
       id="g4129">
      <path
         d="M 571.76129,48.388243 557.21356,91.718586 542.19654,48.388243 c -2.03355,-5.787802 -5.00567,-8.134216 -10.32419,-8.134216 l -11.88847,0 c -6.56994,0 -9.69849,2.189988 -9.69849,8.44707 0,5.474948 2.97212,8.447071 8.44707,8.447071 0.46928,0 0.78214,0 1.25142,0 l -2.18998,56.939512 c -0.46929,0 -0.93857,0 -1.25142,0 -5.47495,0 -8.29065,2.8157 -8.29065,8.29064 0,6.41351 3.12856,8.44707 9.54207,8.44707 l 17.20699,0 c 6.41351,0 9.54206,-2.03356 9.54206,-8.44707 0,-5.47494 -2.81569,-8.29064 -8.29064,-8.29064 -0.31286,0 -0.78214,0 -1.25142,0 l 1.09499,-46.615315 11.10634,34.726845 c 1.72069,5.31852 4.69282,7.35208 9.69848,7.35208 5.00567,0 7.97779,-2.03356 9.69849,-7.35208 l 11.26276,-34.726845 1.09499,46.615315 c -0.46928,0 -0.93856,0 -1.25141,0 -5.47495,0 -8.29065,2.8157 -8.29065,8.29064 0,6.41351 3.12855,8.44707 9.54206,8.44707 l 17.207,0 c 6.41351,0 9.54206,-2.03356 9.54206,-8.44707 0,-5.47494 -2.8157,-8.29064 -8.29064,-8.29064 -0.31286,0 -0.78214,0 -1.25142,0 l -2.18998,-56.939512 c 0.46928,0 0.78213,0 1.25141,0 5.47495,0 8.44708,-2.972123 8.44708,-8.447071 0,-6.257082 -3.12856,-8.44707 -9.69849,-8.44707 l -11.88847,0 c -5.31852,0 -8.29065,2.346414 -10.3242,8.134216"
         style="font-size:156.42723083px;font-style:normal;fill:#0044aa;font-family:Courier 10 Pitch;-inkscape-font-specification:Courier 10 Pitch Bold"
         id="path4131" />
      <path
         d="m 681.97405,114.08768 0,-50.525996 c 0,-2.033552 -1.56428,-3.284971 -4.37996,-3.284971 l -14.39131,0 c -6.41351,0 -9.69849,1.877133 -9.69849,8.290643 0,5.474947 2.97213,8.44707 8.44707,8.44707 0.46928,0 0.78214,0 1.25142,0 l 0,22.05624 c 0,10.793464 -6.41352,17.050564 -14.3913,17.050564 -8.75992,0 -11.26276,-5.94424 -11.26276,-17.050564 l 0,-35.508982 c 0,-2.033552 -1.40785,-3.284971 -4.22354,-3.284971 l -14.39131,0 c -6.41351,0 -9.69848,1.877133 -9.69848,8.290643 0,5.474947 2.81569,8.44707 8.29064,8.44707 0.46928,0 0.78214,0 1.25142,0 l 0,25.497634 c 0,20.02267 7.82138,30.03403 24.40265,30.03403 9.69847,0 16.58129,-3.59783 21.43053,-10.9499 l 0,5.7878 c 0,2.03356 1.56427,3.4414 4.53639,3.4414 l 12.82703,0 c 6.41351,0 9.54206,-2.03356 9.54206,-8.44707 0,-5.47494 -2.8157,-8.29064 -8.29064,-8.29064 -0.31286,0 -0.78214,0 -1.25142,0"
         style="font-size:156.42723083px;font-style:normal;fill:#0044aa;font-family:Courier 10 Pitch;-inkscape-font-specification:Courier 10 Pitch Bold"
         id="path4133" />
      <path
         d="m 862.04133,40.410454 -45.3639,0 c -6.41351,0 -9.69849,1.877133 -9.69849,8.290643 0,6.413511 3.28498,8.447071 9.69849,8.447071 l 12.82703,0 0,56.939512 -12.82703,0 c -6.41351,0 -9.69849,1.87713 -9.69849,8.29064 0,6.41351 3.28498,8.44707 9.69849,8.44707 l 45.3639,0 c 6.56993,0 9.54206,-2.50284 9.54206,-8.44707 0,-6.41351 -3.12855,-8.29064 -9.54206,-8.29064 l -12.82704,0 0,-56.939512 12.82704,0 c 6.41351,0 9.69848,-2.03356 9.69848,-8.447071 0,-6.569937 -3.28497,-8.290643 -9.69848,-8.290643"
         style="font-size:156.42723083px;font-style:normal;fill:#0044aa;font-family:Courier 10 Pitch;-inkscape-font-specification:Courier 10 Pitch Bold"
         id="path4137" />
      <path
         d="m 964.58916,40.254027 -62.57089,0 c -6.25708,0 -9.38563,2.346415 -9.38563,8.44707 0,5.474948 2.97212,8.447071 8.29064,8.447071 0.31286,0 0.78214,0 1.09499,0 l 0,56.939512 c -0.46928,0 -0.78213,0 -1.25142,0 -5.16209,0 -8.13421,2.97212 -8.13421,8.29064 0,6.25709 3.12855,8.44707 9.38563,8.44707 l 22.83838,0 c 6.25708,0 9.38563,-2.18998 9.38563,-8.44707 0,-6.25708 -3.12855,-8.29064 -9.38563,-8.29064 l -4.22354,0 0,-22.369094 13.29632,0 c 0,0.469281 0,0.938564 0,1.407845 0,5.474948 2.65927,8.134219 7.82136,8.134219 5.7878,0 7.82136,-3.128554 7.82136,-9.542064 l 0,-15.79915 c 0,-6.41351 -2.03356,-9.542061 -7.82136,-9.542061 -5.16209,0 -7.82136,2.815696 -7.82136,8.603497 0,0.312854 0,0.62571 0,0.938564 l -13.29632,0 0,-19.553404 35.50898,0 0,7.977789 c 0,6.41351 1.87714,9.698488 8.13422,9.698488 6.10066,0 8.29064,-3.128551 8.29064,-9.698488 l 0,-17.050569 c 0,-5.474947 -1.56428,-7.039225 -7.97779,-7.039225"
         style="font-size:156.42723083px;font-style:normal;fill:#0044aa;font-family:Courier 10 Pitch;-inkscape-font-specification:Courier 10 Pitch Bold"
         id="path4139" />
    </g>
  </g>
  <g
     id="layer5"
     style="display:none"
     transform="translate(-294.625,-57.875)">
    <path
       style="opacity:0.45679016;fill:none;stroke:#000000;stroke-width:1.25;stroke-linecap:butt;stroke-linejoin:miter;stroke-miterlimit:4;stroke-opacity:1;stroke-dasharray:none;display:inline"
       d="m 202.65038,54.615712 30.02772,-0.0884 c 9.54468,-0.0281 13.72284,3.97881 15.68629,9.82842 1.59443,4.7502 -5.78835,7.32968 -5.34314,14.05026 0.44521,6.72058 0.69701,13.89434 4.81801,18.93934 3.57363,4.374908 9.3609,7.234618 15.25942,7.371968 5.89852,0.13735 13.25403,-1.76557 17.4477,-6.311298 4.69775,-5.09213 6.28114,-13.76888 5.47487,-20.05027 -0.80627,-6.28139 -6.90979,-10.09608 -5.05025,-15.05025 2.13148,-5.67865 7.8694,-9.05623 15.71026,-9.1815 10.58805,-0.0945 41.11817,-0.59667 41.11817,-0.59667"
       id="path3004" />
    <path
       style="opacity:0.45679016;fill:none;stroke:#000000;stroke-width:1.25;stroke-linecap:butt;stroke-linejoin:miter;stroke-miterlimit:4;stroke-opacity:1;stroke-dasharray:none;display:inline"
       d="m 250.48547,99.498549 -0.70711,9.901471 c -0.6867,9.61574 -3.97843,13.86016 -9.82748,15.84326 -4.74974,1.61039 -7.32897,-5.84627 -14.0489,-5.39661 -6.71993,0.44967 -13.893,0.70399 -18.93751,4.86623 -4.37449,3.60939 -7.23392,9.45457 -7.37126,15.41212 -0.13734,5.95754 1.7654,13.38666 6.31069,17.6223 5.09164,4.74476 13.76755,6.34399 20.04834,5.52965 6.28078,-0.81433 10.0951,-6.97893 15.04879,-5.10078 5.6781,2.15281 9.05536,7.94815 9.18062,15.86747 0.0945,10.69399 -0.1105,11.12404 -0.1105,11.12404"
       id="path3004-3" />
    <path
       style="opacity:0.45679016;fill:none;stroke:#000000;stroke-width:1.25;stroke-linecap:butt;stroke-linejoin:miter;stroke-miterlimit:4;stroke-opacity:1;stroke-dasharray:none;display:inline"
       d="m 154.62167,151.41256 35.70711,0 c 9.54472,0 13.72284,-3.97881 15.68629,-9.82842 1.59443,-4.7502 -5.78835,-7.32968 -5.34314,-14.05026 0.44521,-6.72058 0.69701,-13.89434 4.81801,-18.93934 3.57363,-4.37491 9.3609,-7.23462 15.25942,-7.37197 5.89852,-0.13735 13.25403,1.76557 17.4477,6.3113 4.69775,5.09213 6.28114,13.76888 5.47487,20.05027 -0.80627,6.28139 -6.90979,10.09608 -5.05025,15.05025 2.13148,5.67865 7.8694,9.05623 15.71026,9.1815 10.58804,0.0945 41.11816,0.59667 41.11816,0.59667"
       id="path3004-8" />
    <path
       style="opacity:0.45679016;fill:none;stroke:#000000;stroke-width:1.25;stroke-linecap:butt;stroke-linejoin:miter;stroke-miterlimit:4;stroke-opacity:1;stroke-dasharray:none;display:inline"
       d="m 241.76851,148.85977 0.7071,9.90147 c 0.6867,9.61575 3.97843,13.86017 9.82748,15.84326 4.74974,1.61039 7.32897,-5.84627 14.0489,-5.3966 6.71993,0.44966 13.893,0.70398 18.93751,4.86622 4.37449,3.60939 7.23393,9.45457 7.37127,15.41212 0.13734,5.95754 -1.76541,13.38666 -6.3107,17.6223 -5.09164,4.74476 -13.76755,6.34399 -20.04834,5.52965 -6.28078,-0.81433 -10.0951,-6.97893 -15.04879,-5.10078 -5.6781,2.15281 -9.05536,7.94815 -9.18062,15.86747 -0.0945,10.69399 0.1105,6.52785 0.1105,6.52785"
       id="path3004-3-0" />
  </g>
  <g
     id="layer3"
     style="opacity:0;display:none"
     transform="translate(-294.625,-57.875)">
    <rect
       style="fill:none;stroke:#0000ff;stroke-width:3.44555354;stroke-miterlimit:4;stroke-opacity:1;stroke-dasharray:none"
       id="rect3002-2"
       width="283.91196"
       height="174.08783"
       x="81.489754"
       y="72.242401" />
    <path
       style="fill:none;stroke:#0000ff;stroke-width:1px;stroke-linecap:butt;stroke-linejoin:miter;stroke-opacity:1"
       d="m 81.82407,161.79636 35.7071,0 c 9.54472,0 13.72284,3.97881 15.68629,9.82842 1.59443,4.75019 -5.78835,7.32967 -5.34314,14.05025 0.44521,6.72058 0.69701,13.89434 4.81801,18.93934 3.57363,4.37491 9.3609,7.23462 15.25942,7.37197 5.89852,0.13735 13.25403,-1.76557 17.4477,-6.3113 4.69775,-5.09213 6.28114,-13.76888 5.47487,-20.05027 -0.80627,-6.28139 -6.90979,-10.09608 -5.05025,-15.05024 2.13148,-5.67865 7.8694,-9.05623 15.71027,-9.1815 10.58804,-0.0945 41.11816,-0.59667 41.11816,-0.59667"
       id="path3004-4" />
    <path
       style="fill:none;stroke:#0000ff;stroke-width:1px;stroke-linecap:butt;stroke-linejoin:miter;stroke-opacity:1"
       d="m 222.99416,160.55297 35.70711,0 c 9.54472,0 13.72284,-3.97881 15.68629,-9.82842 1.59443,-4.7502 -5.78835,-7.32968 -5.34314,-14.05026 0.44521,-6.72058 0.69701,-13.89434 4.81801,-18.93934 3.57363,-4.37491 9.3609,-7.23462 15.25942,-7.37197 5.89852,-0.13735 13.25403,1.76557 17.4477,6.3113 4.69775,5.09213 6.28114,13.76888 5.47487,20.05027 -0.80627,6.28139 -6.90979,10.09608 -5.05025,15.05025 2.13148,5.67865 7.8694,9.05623 15.71026,9.1815 10.58804,0.0945 41.11816,0.59667 41.11816,0.59667"
       id="path3004-8-6" />
    <path
       style="fill:none;stroke:#0000ff;stroke-width:1.00494254px;stroke-linecap:butt;stroke-linejoin:miter;stroke-opacity:1"
       d="m 227.29736,74.776794 -0.70711,9.90147 c -0.6867,9.615745 -3.97843,13.860164 -9.82748,15.843266 -4.74974,1.61039 -7.32897,-5.846277 -14.0489,-5.396612 -6.71993,0.449665 -13.893,0.703985 -18.93751,4.866227 -4.3745,3.609395 -7.23393,9.454575 -7.37127,15.412125 -0.13734,5.95754 1.7654,13.38666 6.3107,17.6223 5.09164,4.74476 13.76755,6.34399 20.04834,5.52965 6.28078,-0.81433 10.0951,-6.97893 15.04879,-5.10078 5.6781,2.15281 9.05536,7.94815 9.18062,15.86747 0.0945,10.69399 -0.1105,11.12404 -0.1105,11.12404"
       id="path3004-3-9" />
    <path
       style="fill:none;stroke:#0000ff;stroke-width:1.00494254px;stroke-linecap:butt;stroke-linejoin:miter;stroke-opacity:1"
       d="m 226.81161,161.72654 0.7071,9.90147 c 0.6867,9.61574 3.97843,13.86016 9.82748,15.84325 4.74974,1.61039 7.32897,-5.84627 14.0489,-5.3966 6.71993,0.44966 13.893,0.70398 18.93751,4.86622 4.37449,3.60939 7.23393,9.45457 7.37127,15.41212 0.13734,5.95754 -1.76541,13.38666 -6.3107,17.6223 -5.09164,4.74476 -13.76755,6.34399 -20.04834,5.52965 -6.28078,-0.81433 -10.0951,-6.97893 -15.04879,-5.10078 -5.6781,2.15281 -9.05536,7.94815 -9.18062,15.86747 -0.0945,10.69399 0.1105,11.12404 0.1105,11.12404"
       id="path3004-3-0-8" />
    <path
       style="fill:none;stroke:#0000ff;stroke-width:2.12132025;stroke-miterlimit:4;stroke-opacity:1;stroke-dasharray:none"
       d="m 83.21104,203.31541 0,-40.65863 18.60998,0 c 14.57316,0 19.39324,0.2326 22.2208,1.07229 3.81913,1.13416 6.31528,3.44329 7.92617,7.33233 0.87305,2.10772 0.77438,2.44828 -1.81984,6.28112 l -2.74294,4.05258 0.10792,7.07107 c 0.17727,11.61555 3.36478,17.9218 11.01506,21.79249 8.26949,4.18398 19.90993,2.80998 26.33008,-3.10791 4.33372,-3.99468 6.21637,-8.73621 6.59199,-16.60218 0.29718,-6.22336 0.23416,-6.54504 -2.24744,-11.47284 -1.40425,-2.78847 -2.55319,-5.82632 -2.55319,-6.75079 0,-2.70901 2.91302,-6.25381 6.71752,-8.17441 3.38502,-1.70884 4.15262,-1.79391 18.03123,-1.99816 7.97263,-0.11733 18.97348,-0.2934 24.44633,-0.39126 l 9.95065,-0.17792 0.84097,8.41119 c 1.0832,10.83384 2.81914,14.4319 8.24323,17.08566 4.11853,2.01501 4.61292,1.93292 10.08841,-1.67527 3.69909,-2.4376 3.75093,-2.44833 9.8995,-2.04944 10.9181,0.7083 16.78389,4.061 20.01314,11.43887 2.78889,6.37177 2.39346,13.16637 -1.18157,20.30319 -2.73139,5.45265 -8.8865,8.82183 -17.35634,9.5005 -5.04685,0.4044 -5.35384,0.33437 -10.85065,-2.47514 -6.11798,-3.12701 -7.878,-3.43609 -10.81849,-1.89991 -5.2979,2.76775 -7.79753,7.87745 -8.40925,17.18996 l -0.431,6.56125 -71.31114,0 -71.31113,0 0,-40.65864 z"
       id="path3108-9" />
    <path
       style="fill:none;stroke:#0000ff;stroke-width:2.12132025;stroke-miterlimit:4;stroke-opacity:1;stroke-dasharray:none"
       d="m 322.71559,159.85646 c -7.02371,-0.53165 -11.34613,-2.42318 -13.46013,-5.89026 -1.93347,-3.17102 -1.75697,-4.78438 1.18298,-10.81355 2.49539,-5.11748 2.56156,-5.45883 2.21873,-11.44688 -0.78593,-13.72765 -7.76398,-21.00763 -20.96786,-21.87511 -7.12734,-0.46825 -12.38667,1.41941 -17.10742,6.14016 -4.25659,4.25659 -5.79139,9.05207 -5.88949,18.40169 -0.0701,6.68422 -0.0568,6.73764 2.67869,10.77948 l 2.74918,4.06196 -1.72662,3.36266 c -1.21963,2.37527 -2.64976,3.88173 -4.8705,5.13042 -3.09073,1.73789 -3.44991,1.77164 -21.25095,1.99643 l -18.10708,0.22867 -0.36153,-8.00684 c -0.48541,-10.75071 -2.7167,-15.67234 -8.46725,-18.67657 -2.86182,-1.49508 -4.16009,-1.26362 -10.58912,1.88792 -5.68461,2.78662 -6.0642,2.8715 -11.08177,2.47806 -13.16917,-1.03263 -20.06043,-8.45022 -20.10068,-21.63589 -0.0111,-3.65112 0.4048,-5.46053 2.00782,-8.73432 3.56398,-7.278578 8.66403,-10.104832 19.56984,-10.844862 6.17627,-0.419099 6.18375,-0.417545 9.91794,2.061817 5.22546,3.469515 6.01205,3.600545 10.13187,1.687695 5.79184,-2.68917 7.63658,-6.915018 8.53327,-19.547551 l 0.44954,-6.333164 67.42281,0 67.42281,0 0,43.133515 0,43.13352 -17.14734,-0.11203 c -9.43103,-0.0616 -19.85202,-0.31675 -23.15774,-0.56697 z"
       id="path3110-8" />
    <path
       style="fill:none;stroke:#0000ff;stroke-width:2.12132025;stroke-miterlimit:4;stroke-opacity:1;stroke-dasharray:none"
       d="m 228.14494,237.43331 c 0.41435,-7.23937 1.53318,-10.544 4.53339,-13.39004 3.79614,-3.60107 5.16603,-3.66708 11.33279,-0.54612 4.84445,2.45176 6.11816,2.79348 10.42227,2.79617 10.27117,0.006 17.90214,-3.92479 21.216,-10.92969 3.41572,-7.22025 3.5481,-16.375 0.32719,-22.62768 -3.93025,-7.62971 -10.57775,-10.91556 -22.68261,-11.21196 -4.97226,-0.12176 -5.50806,0.0216 -9.6787,2.58978 -3.16289,1.94762 -4.89007,2.59945 -6.08994,2.2983 -2.19552,-0.55103 -5.82924,-3.64266 -7.03454,-5.98508 -1.15975,-2.2539 -2.52751,-10.69991 -2.52751,-15.60756 l 0,-3.57687 17.50089,-0.004 c 10.02976,-0.002 18.64114,-0.32059 20.17187,-0.74568 4.93273,-1.36983 9.70339,-7.04531 9.70339,-11.54376 0,-0.83274 -1.14909,-3.22038 -2.55354,-5.30587 l -2.55354,-3.79179 0.35387,-6.80537 c 0.4497,-8.64808 1.35745,-11.52479 4.82312,-15.28459 3.67586,-3.98784 8.91089,-6.25117 14.42578,-6.2369 12.6898,0.0328 20.28011,7.17637 21.27146,20.01942 0.39692,5.1422 0.32171,5.48211 -2.4761,11.18953 -1.587,3.23743 -2.88545,6.51476 -2.88545,7.28296 0,3.44191 4.11306,8.2114 8.83883,10.24945 2.38304,1.02773 6.39152,1.30208 25.45584,1.74226 12.44508,0.28736 22.70697,0.55082 22.8042,0.58548 0.0972,0.0347 0.17677,18.3594 0.17677,40.72165 l 0,40.65864 -67.62504,0 -67.62505,0 0.37436,-6.54074 0,0 z"
       id="path3112-2" />
    <path
       style="fill:none;stroke:#0000ff;stroke-width:2.12132025;stroke-miterlimit:4;stroke-opacity:1;stroke-dasharray:none"
       d="m 145.36982,210.62112 c -4.33673,-0.75179 -9.1778,-3.35637 -11.52013,-6.19802 -2.79512,-3.39096 -4.18018,-7.84193 -4.66573,-14.99352 -0.41305,-6.08384 -0.40464,-6.12416 2.15972,-10.34554 2.91267,-4.79477 3.15334,-6.86397 1.23542,-10.6218 -3.42055,-6.70197 -5.24592,-7.15068 -29.2434,-7.18864 l -19.62221,-0.031 0,-43.48706 0,-43.487075 71.46866,0 71.46868,0 -0.40443,3.889088 c -0.22245,2.138998 -0.59566,5.713019 -0.82938,7.942269 -0.79522,7.585134 -3.84735,12.190299 -8.80022,13.278133 -1.78316,0.391646 -2.87195,0.02643 -5.88465,-1.973891 -4.74351,-3.14951 -6.62981,-3.517215 -13.52802,-2.63707 -8.84391,1.128397 -11.82925,2.394816 -15.74494,6.679216 -5.77986,6.32408 -7.22944,14.0779 -4.36539,23.3506 2.82482,9.14569 9.35,13.68693 20.62558,14.3545 5.99803,0.35512 6.32087,0.29288 11.44688,-2.20667 2.90113,-1.41465 6.01035,-2.5709 6.90937,-2.56945 2.97182,0.005 6.2138,2.64965 8.03024,6.55117 1.48673,3.19332 1.72322,4.73881 1.72918,11.30063 l 0.007,7.6014 -7.24785,0.0568 c -3.98631,0.0313 -15.20279,0.28664 -24.92551,0.56745 -19.90289,0.57482 -21.99498,1.05137 -26.33974,5.99984 -3.34707,3.81216 -3.30129,6.2683 0.24827,13.31676 2.00273,3.9769 2.40338,5.54457 2.40338,9.404 0,5.2288 -1.84537,11.30557 -4.48363,14.7645 -3.64395,4.77748 -13.06852,7.90696 -20.12706,6.68334 l 0,3e-5 z"
       id="path3114-2" />
  </g>
</svg>
